<svg width="24" height="24" fill="none" xmlns="http://www.w3.org/2000/svg"><g clip-path="url(#a)"><mask id="b" fill="#fff"><path d="M24 12c0 6.627-5.373 12-12 12S0 18.627 0 12 5.373 0 12 0s12 5.373 12 12"/></mask><path d="M24 12c0 6.627-5.373 12-12 12S0 18.627 0 12 5.373 0 12 0s12 5.373 12 12" fill="#050E1F"/><path d="M12 24v-1 1Zm11-12c0 6.075-4.925 11-11 11v2c7.18 0 13-5.82 13-13h-2ZM12 23C5.925 23 1 18.075 1 12h-2c0 7.18 5.82 13 13 13v-2ZM1 12C1 5.925 5.925 1 12 1v-2C4.82-1-1 4.82-1 12h2ZM12 1c6.075 0 11 4.925 11 11h2c0-7.18-5.82-13-13-13v2Z" fill="#58FFCA" mask="url(#b)"/><path d="m11.999 4.13-.101.344v9.99l.1.102 4.638-2.741L12 4.13Z" fill="#91FFDC"/><path d="M11.996 4.13 7.36 11.827l4.637 2.74V4.132Z" fill="#C0FFEB"/><path d="m12.001 16.076-.057.07v3.558l.057.167 4.64-6.535-4.64 2.74Z" fill="#8CFFDB"/><path d="M11.997 19.87v-3.794l-4.638-2.74 4.638 6.535Z" fill="#A4FFE2"/><path d="m11.999 14.568 4.637-2.741L12 9.719v4.849Z" fill="#58FFCA"/><path d="m7.36 11.827 4.637 2.74V9.72l-4.638 2.108Z" fill="#8CFFDB"/></g><defs><clipPath id="a"><path fill="#fff" d="M0 0h24v24H0z"/></clipPath></defs></svg>