<svg width="33" height="32" viewBox="0 0 33 32" fill="none" xmlns="http://www.w3.org/2000/svg">
<g clip-path="url(#clip0)">
<rect x="1.30469" y="0.75" width="30.5" height="30.5" fill="#050E1F" stroke="#58FFCA" stroke-width="1.5"/>
<path d="M13.8047 18.4062C14.3742 18.4062 14.8359 17.9445 14.8359 17.375C14.8359 16.8055 14.3742 16.3438 13.8047 16.3438C13.2351 16.3438 12.7734 16.8055 12.7734 17.375C12.7734 17.9445 13.2351 18.4062 13.8047 18.4062Z" fill="#EDFCFF"/>
<path d="M19.3047 18.4062C19.8742 18.4062 20.3359 17.9445 20.3359 17.375C20.3359 16.8055 19.8742 16.3438 19.3047 16.3438C18.7351 16.3438 18.2734 16.8055 18.2734 17.375C18.2734 17.9445 18.7351 18.4062 19.3047 18.4062Z" fill="#EDFCFF"/>
<path d="M11.9492 11.8754C13.4397 11.4089 14.9936 11.1769 16.5553 11.1879C18.117 11.1769 19.6709 11.4089 21.1614 11.8753" stroke="#58FFCA" stroke-width="1.5" stroke-linecap="round" stroke-linejoin="round"/>
<path d="M21.1605 20.125C19.6701 20.5915 18.1162 20.8234 16.5545 20.8125C14.9928 20.8234 13.4389 20.5915 11.9484 20.125" stroke="#58FFCA" stroke-width="1.5" stroke-linecap="round" stroke-linejoin="round"/>
<path d="M18.8782 20.6504L19.9116 22.7173C19.9805 22.8561 20.0944 22.9675 20.2347 23.0332C20.3751 23.0989 20.5336 23.115 20.6843 23.079C22.7931 22.5634 24.611 21.6645 25.9351 20.5137C26.0362 20.4268 26.11 20.3125 26.1477 20.1845C26.1854 20.0566 26.1853 19.9206 26.1475 19.7927L23.2279 10.0606C23.1984 9.96246 23.1474 9.87213 23.0786 9.79618C23.0099 9.72023 22.925 9.66057 22.8303 9.62153C22.0055 9.28382 21.1524 9.01974 20.281 8.83238C20.115 8.796 19.9414 8.82226 19.7935 8.90612C19.6457 8.98998 19.5341 9.12551 19.4801 9.28668L18.7949 11.3423" stroke="#58FFCA" stroke-width="1.5" stroke-linecap="round" stroke-linejoin="round"/>
<path d="M14.2313 20.6504L13.1979 22.7173C13.1291 22.8561 13.0151 22.9675 12.8748 23.0332C12.7344 23.0989 12.576 23.115 12.4252 23.079C10.3164 22.5634 8.49851 21.6645 7.17445 20.5137C7.07333 20.4268 6.99949 20.3125 6.96181 20.1846C6.92412 20.0566 6.92419 19.9206 6.96201 19.7927L9.88164 10.0606C9.91111 9.96246 9.96209 9.87213 10.0309 9.79618C10.0996 9.72022 10.1845 9.66056 10.2792 9.62153C11.1041 9.28382 11.9571 9.01974 12.8285 8.83238C12.9945 8.796 13.1681 8.82226 13.316 8.90612C13.4638 8.98998 13.5754 9.12551 13.6294 9.28668L14.3146 11.3423" stroke="#58FFCA" stroke-width="1.5" stroke-linecap="round" stroke-linejoin="round"/>
<path d="M13.8047 18.4062C14.3742 18.4062 14.8359 17.9445 14.8359 17.375C14.8359 16.8055 14.3742 16.3438 13.8047 16.3438C13.2351 16.3438 12.7734 16.8055 12.7734 17.375C12.7734 17.9445 13.2351 18.4062 13.8047 18.4062Z" fill="#EDFCFF"/>
<path d="M19.3047 18.4062C19.8742 18.4062 20.3359 17.9445 20.3359 17.375C20.3359 16.8055 19.8742 16.3438 19.3047 16.3438C18.7351 16.3438 18.2734 16.8055 18.2734 17.375C18.2734 17.9445 18.7351 18.4062 19.3047 18.4062Z" fill="#EDFCFF"/>
<path d="M11.9492 11.8754C13.4397 11.4089 14.9936 11.1769 16.5553 11.1879C18.117 11.1769 19.6709 11.4089 21.1614 11.8753" stroke="#58FFCA" stroke-width="1.5" stroke-linecap="round" stroke-linejoin="round"/>
<path d="M21.1605 20.125C19.6701 20.5915 18.1162 20.8234 16.5545 20.8125C14.9928 20.8234 13.4389 20.5915 11.9484 20.125" stroke="#58FFCA" stroke-width="1.5" stroke-linecap="round" stroke-linejoin="round"/>
<path d="M18.8782 20.6504L19.9116 22.7173C19.9805 22.8561 20.0944 22.9675 20.2347 23.0332C20.3751 23.0989 20.5336 23.115 20.6843 23.079C22.7931 22.5634 24.611 21.6645 25.9351 20.5137C26.0362 20.4268 26.11 20.3125 26.1477 20.1845C26.1854 20.0566 26.1853 19.9206 26.1475 19.7927L23.2279 10.0606C23.1984 9.96246 23.1474 9.87213 23.0786 9.79618C23.0099 9.72023 22.925 9.66057 22.8303 9.62153C22.0055 9.28382 21.1524 9.01974 20.281 8.83238C20.115 8.796 19.9414 8.82226 19.7935 8.90612C19.6457 8.98998 19.5341 9.12551 19.4801 9.28668L18.7949 11.3423" stroke="#58FFCA" stroke-width="1.5" stroke-linecap="round" stroke-linejoin="round"/>
<path d="M14.2313 20.6504L13.1979 22.7173C13.1291 22.8561 13.0151 22.9675 12.8748 23.0332C12.7344 23.0989 12.576 23.115 12.4252 23.079C10.3164 22.5634 8.49851 21.6645 7.17445 20.5137C7.07333 20.4268 6.99949 20.3125 6.96181 20.1846C6.92412 20.0566 6.92419 19.9206 6.96201 19.7927L9.88164 10.0606C9.91111 9.96246 9.96209 9.87213 10.0309 9.79618C10.0996 9.72022 10.1845 9.66056 10.2792 9.62153C11.1041 9.28382 11.9571 9.01974 12.8285 8.83238C12.9945 8.796 13.1681 8.82226 13.316 8.90612C13.4638 8.98998 13.5754 9.12551 13.6294 9.28668L14.3146 11.3423" stroke="#58FFCA" stroke-width="1.5" stroke-linecap="round" stroke-linejoin="round"/>
</g>
<defs>
<clipPath id="clip0">
<rect width="32" height="32" fill="white" transform="translate(0.554688)"/>
</clipPath>
</defs>
</svg>
