<svg width="33" height="32" viewBox="0 0 33 32" fill="none" xmlns="http://www.w3.org/2000/svg">
<g clip-path="url(#clip0)">
<rect x="1.70312" y="0.75" width="30.5" height="30.5" fill="#050E1F" stroke="#58FFCA" stroke-width="1.5"/>
<path d="M10.2867 21.9993C10.2867 21.9993 13.6201 21.3326 14.2867 19.3326C14.2867 19.3326 8.95341 17.3326 10.2867 9.99929C10.2867 9.99929 12.9534 13.3326 16.9534 13.9993V12.6662C16.9535 11.9003 17.2172 11.1578 17.7003 10.5636C18.1834 9.96927 18.8564 9.55944 19.6061 9.40295C20.3558 9.24647 21.1366 9.35288 21.817 9.70429C22.4975 10.0557 23.0363 10.6307 23.3427 11.3326L26.2867 11.3326L23.6201 13.9993C23.6201 18.666 20.2867 23.3326 14.2867 23.3326C11.6201 23.3326 10.2867 21.9993 10.2867 21.9993Z" stroke="#58FFCA" stroke-width="1.5" stroke-linecap="round" stroke-linejoin="round"/>
</g>
<defs>
<clipPath id="clip0">
<rect width="32" height="32" fill="white" transform="translate(0.953125)"/>
</clipPath>
</defs>
</svg>
