<svg width="319" height="319" fill="none" xmlns="http://www.w3.org/2000/svg"><path d="m274.1 35.5-99.5 73.9L193 65.8l81.1-30.3z" fill="#E2761B" stroke="#E2761B" stroke-linecap="round" stroke-linejoin="round"/><path d="m44.4 35.5 98.7 74.6-17.5-44.3-81.2-30.3zm193.9 171.3-26.5 40.6 56.7 15.6 16.3-55.3-46.5-.9zm-204.4.9L50.1 263l56.7-15.6-26.5-40.6-46.4.9z" fill="#E4761B" stroke="#E4761B" stroke-linecap="round" stroke-linejoin="round"/><path d="m103.6 138.2-15.8 23.9 56.3 2.5-2-60.5-38.5 34.1zm111.3 0-39-34.8-1.3 61.2 56.2-2.5-15.9-23.9zM106.8 247.4l33.8-16.5-29.2-22.8-4.6 39.3zm71.1-16.5 33.9 16.5-4.7-39.3-29.2 22.8z" fill="#E4761B" stroke="#E4761B" stroke-linecap="round" stroke-linejoin="round"/><path d="m211.8 247.4-33.9-16.5 2.7 22.1-.3 9.3 31.5-14.9zm-105 0 31.5 14.9-.2-9.3 2.5-22.1-33.8 16.5z" fill="#D7C1B3" stroke="#D7C1B3" stroke-linecap="round" stroke-linejoin="round"/><path d="m138.8 193.5-28.2-8.3 19.9-9.1 8.3 17.4zm40.9 0 8.3-17.4 20 9.1-28.3 8.3z" fill="#233447" stroke="#233447" stroke-linecap="round" stroke-linejoin="round"/><path d="m106.8 247.4 4.8-40.6-31.3.9 26.5 39.7zM207 206.8l4.8 40.6 26.5-39.7-31.3-.9zm23.8-44.7-56.2 2.5 5.2 28.9 8.3-17.4 20 9.1 22.7-23.1zm-120.2 23.1 20-9.1 8.2 17.4 5.3-28.9-56.3-2.5 22.8 23.1z" fill="#CD6116" stroke="#CD6116" stroke-linecap="round" stroke-linejoin="round"/><path d="m87.8 162.1 23.6 46-.8-22.9-22.8-23.1zm120.3 23.1-1 22.9 23.7-46-22.7 23.1zm-64-20.6-5.3 28.9 6.6 34.1 1.5-44.9-2.8-18.1zm30.5 0-2.7 18 1.2 45 6.7-34.1-5.2-28.9z" fill="#E4751F" stroke="#E4751F" stroke-linecap="round" stroke-linejoin="round"/><path d="m179.8 193.5-6.7 34.1 4.8 3.3 29.2-22.8 1-22.9-28.3 8.3zm-69.2-8.3.8 22.9 29.2 22.8 4.8-3.3-6.6-34.1-28.2-8.3z" fill="#F6851B" stroke="#F6851B" stroke-linecap="round" stroke-linejoin="round"/><path d="m180.3 262.3.3-9.3-2.5-2.2h-37.7l-2.3 2.2.2 9.3-31.5-14.9 11 9 22.3 15.5h38.3l22.4-15.5 11-9-31.5 14.9z" fill="#C0AD9E" stroke="#C0AD9E" stroke-linecap="round" stroke-linejoin="round"/><path d="m177.9 230.9-4.8-3.3h-27.7l-4.8 3.3-2.5 22.1 2.3-2.2h37.7l2.5 2.2-2.7-22.1z" fill="#161616" stroke="#161616" stroke-linecap="round" stroke-linejoin="round"/><path d="m278.3 114.2 8.5-40.8-12.7-37.9-96.2 71.4 37 31.3 52.3 15.3 11.6-13.5-5-3.6 8-7.3-6.2-4.8 8-6.1-5.3-4zM31.8 73.4l8.5 40.8-5.4 4 8 6.1-6.1 4.8 8 7.3-5 3.6 11.5 13.5 52.3-15.3 37-31.3-96.2-71.4-12.6 37.9z" fill="#763D16" stroke="#763D16" stroke-linecap="round" stroke-linejoin="round"/><path d="m267.2 153.5-52.3-15.3 15.9 23.9-23.7 46 31.2-.4h46.5l-17.6-54.2zm-163.6-15.3-52.3 15.3-17.4 54.2h46.4l31.1.4-23.6-46 15.8-23.9zm71 26.4 3.3-57.7 15.2-41.1h-67.5l15 41.1 3.5 57.7 1.2 18.2.1 44.8h27.7l.2-44.8 1.3-18.2z" fill="#F6851B" stroke="#F6851B" stroke-linecap="round" stroke-linejoin="round"/></svg>