<svg width="32" height="32" viewBox="0 0 32 32" fill="none" xmlns="http://www.w3.org/2000/svg">
<path d="M12 19.25C12.6904 19.25 13.25 18.6904 13.25 18C13.25 17.3096 12.6904 16.75 12 16.75C11.3096 16.75 10.75 17.3096 10.75 18C10.75 18.6904 11.3096 19.25 12 19.25Z" fill="black"/>
<path d="M20 19.25C20.6904 19.25 21.25 18.6904 21.25 18C21.25 17.3096 20.6904 16.75 20 16.75C19.3096 16.75 18.75 17.3096 18.75 18C18.75 18.6904 19.3096 19.25 20 19.25Z" fill="black"/>
<path d="M9.30022 10C11.4682 9.3215 13.7284 8.98414 16 9.00005C18.2716 8.98414 20.5318 9.32149 22.6997 10" stroke="black" stroke-width="1.5" stroke-linecap="round" stroke-linejoin="round"/>
<path d="M22.6996 22C20.5317 22.6785 18.2715 23.0159 16 23C13.7284 23.0159 11.4682 22.6785 9.30031 22" stroke="black" stroke-width="1.5" stroke-linecap="round" stroke-linejoin="round"/>
<path d="M19.3805 22.761L20.8836 25.7673C20.9838 25.9692 21.1495 26.1312 21.3536 26.2268C21.5578 26.3224 21.7883 26.3459 22.0075 26.2934C25.0749 25.5435 27.7192 24.236 29.6451 22.5621C29.7921 22.4356 29.8995 22.2694 29.9544 22.0833C30.0092 21.8973 30.0091 21.6994 29.9541 21.5134L25.7073 7.35758C25.6645 7.21484 25.5903 7.08345 25.4903 6.97298C25.3902 6.8625 25.2668 6.77572 25.129 6.71895C23.9292 6.22773 22.6884 5.84361 21.4209 5.57108C21.1795 5.51817 20.9269 5.55637 20.7119 5.67834C20.4969 5.80032 20.3345 5.99746 20.256 6.23189L19.2594 9.22184" stroke="black" stroke-width="1.5" stroke-linecap="round" stroke-linejoin="round"/>
<path d="M12.6195 22.7609L11.1164 25.7673C11.0162 25.9692 10.8505 26.1312 10.6464 26.2268C10.4422 26.3224 10.2117 26.3458 9.99248 26.2934C6.92514 25.5435 4.28088 24.2361 2.35497 22.5621C2.2079 22.4356 2.10049 22.2694 2.04567 22.0833C1.99086 21.8973 1.99096 21.6994 2.04598 21.5134L6.2927 7.35757C6.33557 7.21483 6.40973 7.08345 6.50977 6.97297C6.60981 6.8625 6.73322 6.77571 6.87102 6.71894C8.07077 6.22772 9.31162 5.84361 10.5791 5.57108C10.8206 5.51817 11.0731 5.55637 11.2881 5.67834C11.5031 5.80032 11.6655 5.99746 11.744 6.23189L12.7406 9.22184" stroke="black" stroke-width="1.5" stroke-linecap="round" stroke-linejoin="round"/>
</svg>
