<svg width="32" height="32" viewBox="0 0 32 32" fill="none" xmlns="http://www.w3.org/2000/svg">
<path d="M26 18C26 9 16 3 16 3C16 3 6 9 6 18C6 20.6522 7.05357 23.1957 8.92893 25.0711C10.8043 26.9464 13.3478 28 16 28C18.6522 28 21.1957 26.9464 23.0711 25.0711C24.9464 23.1957 26 20.6522 26 18Z" stroke="black" stroke-width="1.5" stroke-linecap="round" stroke-linejoin="round"/>
<path d="M11 23C11 24.3261 11.5268 25.5979 12.4645 26.5355C13.4021 27.4732 14.6739 28 16 28C17.3261 28 18.5979 27.4732 19.5355 26.5355C20.4732 25.5979 21 24.3261 21 23C21 18 16 15 16 15C16 15 11 18 11 23Z" stroke="black" stroke-width="1.5" stroke-linecap="round" stroke-linejoin="round"/>
</svg>
