<svg width="32" height="32" viewBox="0 0 32 32" fill="none" xmlns="http://www.w3.org/2000/svg">
<path d="M21.7241 6.4353C20.1697 4.79672 18.4201 3.355 16.5145 2.14246C16.3591 2.04924 16.1813 2 16 2C15.8188 2 15.6409 2.04924 15.4855 2.14246C13.5799 3.355 11.8303 4.79672 10.2759 6.4353C6.82434 10.0594 5 14.0583 5 18C5 20.9174 6.15893 23.7153 8.22183 25.7782C10.2847 27.8411 13.0826 29 16 29C18.9174 29 21.7153 27.8411 23.7782 25.7782C25.8411 23.7153 27 20.9174 27 18C27 14.0583 25.1757 10.0594 21.7241 6.4353ZM12 23C12 19.5409 14.8158 17.0903 15.9999 16.2129C17.1852 17.0912 20 19.5415 20 23C20 24.0609 19.5786 25.0783 18.8284 25.8284C18.0783 26.5786 17.0609 27 16 27C14.9391 27 13.9217 26.5786 13.1716 25.8284C12.4214 25.0783 12 24.0609 12 23Z" fill="black"/>
</svg>
