<svg width="32" height="32" viewBox="0 0 32 32" fill="none" xmlns="http://www.w3.org/2000/svg">
<path d="M16 22C19.3137 22 22 19.3137 22 16C22 12.6863 19.3137 10 16 10C12.6863 10 10 12.6863 10 16C10 19.3137 12.6863 22 16 22Z" stroke="black" stroke-width="1.5" stroke-miterlimit="10" stroke-linecap="round" stroke-linejoin="round"/>
<path d="M6.53762 11.45C6.76262 10.975 7.02512 10.525 7.32512 10.0875L7.27513 6.83747C7.27513 6.53747 7.40012 6.24997 7.63762 6.04997C8.80012 5.07497 10.1251 4.28747 11.5876 3.76247C11.8751 3.66247 12.1876 3.68747 12.4376 3.84997L15.2251 5.52497C15.7501 5.48747 16.2751 5.48747 16.8001 5.52497L19.5876 3.84997C19.8501 3.69997 20.1626 3.66247 20.4501 3.76247C21.8751 4.27497 23.2126 5.03747 24.4001 6.03747C24.6251 6.22497 24.7626 6.52497 24.7501 6.82497L24.7001 10.075C25.0001 10.5125 25.2626 10.9625 25.4876 11.4375L28.3251 13.0125C28.5876 13.1625 28.7751 13.4125 28.8251 13.7125C29.0876 15.2 29.1001 16.75 28.8251 18.2625C28.7751 18.5625 28.5876 18.8125 28.3251 18.9625L25.4876 20.5375C25.2626 21.0125 25.0001 21.4625 24.7001 21.9L24.7501 25.15C24.7501 25.45 24.6251 25.7375 24.3876 25.9375C23.2251 26.9125 21.9001 27.7 20.4376 28.225C20.1501 28.325 19.8376 28.3 19.5876 28.1375L16.8001 26.4625C16.2751 26.5 15.7501 26.5 15.2251 26.4625L12.4376 28.1375C12.1751 28.2875 11.8626 28.325 11.5751 28.225C10.1501 27.7125 8.81262 26.95 7.62512 25.95C7.40012 25.7625 7.26263 25.4625 7.27513 25.1625L7.32512 21.9125C7.02512 21.475 6.76262 21.025 6.53762 20.55L3.70012 18.975C3.43762 18.825 3.25012 18.575 3.20012 18.275C2.93762 16.7875 2.92512 15.2375 3.20012 13.725C3.25012 13.425 3.43762 13.175 3.70012 13.025L6.53762 11.45Z" stroke="black" stroke-width="1.5" stroke-miterlimit="10" stroke-linecap="round" stroke-linejoin="round"/>
</svg>