<svg width="32" height="32" viewBox="0 0 32 32" fill="none" xmlns="http://www.w3.org/2000/svg">
<path d="M16.0002 28C22.6277 28 28.0002 22.6274 28.0002 16C28.0002 9.37258 22.6277 4 16.0002 4C9.37283 4 4.00024 9.37258 4.00024 16C4.00024 22.6274 9.37283 28 16.0002 28Z" stroke="black" stroke-width="1.5" stroke-linecap="round" stroke-linejoin="round"/>
<path d="M15 15H16.0001L16 22H17" stroke="black" stroke-width="1.5" stroke-linecap="round" stroke-linejoin="round"/>
<path d="M16 11.75C16.6904 11.75 17.25 11.1904 17.25 10.5C17.25 9.80964 16.6904 9.25 16 9.25C15.3096 9.25 14.75 9.80964 14.75 10.5C14.75 11.1904 15.3096 11.75 16 11.75Z" fill="black"/>
</svg>
