<svg width="32" height="32" viewBox="0 0 32 32" fill="none" xmlns="http://www.w3.org/2000/svg">
<path d="M27.4998 21.9165V10.0835C27.4998 9.90638 27.4527 9.73246 27.3635 9.57951C27.2742 9.42655 27.146 9.30004 26.9918 9.2129L16.4918 3.27812C16.3417 3.19327 16.1722 3.14868 15.9998 3.14868C15.8273 3.14868 15.6578 3.19327 15.5077 3.27812L5.0077 9.2129C4.85353 9.30004 4.72527 9.42655 4.63603 9.57951C4.54678 9.73246 4.49976 9.90638 4.49976 10.0835V21.9165C4.49976 22.0936 4.54678 22.2675 4.63603 22.4205C4.72527 22.5734 4.85353 22.7 5.0077 22.7871L15.5077 28.7219C15.6578 28.8067 15.8273 28.8513 15.9998 28.8513C16.1722 28.8513 16.3417 28.8067 16.4918 28.7219L26.9918 22.7871C27.146 22.7 27.2742 22.5734 27.3635 22.4205C27.4527 22.2675 27.4998 22.0936 27.4998 21.9165V21.9165Z" stroke="black" stroke-width="1.5" stroke-linecap="round" stroke-linejoin="round"/>
<path d="M16 20.5C18.4853 20.5 20.5 18.4853 20.5 16C20.5 13.5147 18.4853 11.5 16 11.5C13.5147 11.5 11.5 13.5147 11.5 16C11.5 18.4853 13.5147 20.5 16 20.5Z" stroke="black" stroke-width="1.5" stroke-linecap="round" stroke-linejoin="round"/>
</svg>
