<svg width="32" height="32" viewBox="0 0 32 32" fill="none" xmlns="http://www.w3.org/2000/svg">
<path d="M27.4839 8.34233L16.9839 2.40758C16.6833 2.23887 16.3444 2.15027 15.9998 2.15027C15.6551 2.15027 15.3162 2.23887 15.0156 2.40758L4.51563 8.34233C4.20752 8.51685 3.95119 8.76993 3.77273 9.07578C3.59428 9.38163 3.50009 9.72931 3.49976 10.0834V21.9165C3.50009 22.2706 3.59428 22.6183 3.77273 22.9242C3.95119 23.23 4.20752 23.4831 4.51563 23.6576L15.0156 29.5924C15.3162 29.7611 15.6551 29.8498 15.9998 29.8498C16.3444 29.8498 16.6833 29.7611 16.9839 29.5924L27.4839 23.6576C27.792 23.4831 28.0483 23.23 28.2268 22.9242C28.4052 22.6183 28.4994 22.2706 28.4998 21.9165V10.0834C28.4994 9.72931 28.4052 9.38163 28.2268 9.07578C28.0483 8.76993 27.792 8.51685 27.4839 8.34233ZM15.9998 20.5C15.1097 20.5 14.2397 20.2361 13.4997 19.7416C12.7597 19.2471 12.1829 18.5443 11.8423 17.7221C11.5017 16.8998 11.4126 15.995 11.5862 15.1221C11.7599 14.2492 12.1884 13.4473 12.8178 12.818C13.4471 12.1887 14.2489 11.7601 15.1219 11.5864C15.9948 11.4128 16.8996 11.5019 17.7218 11.8425C18.5441 12.1831 19.2469 12.7599 19.7414 13.4999C20.2358 14.2399 20.4998 15.11 20.4998 16C20.4984 17.193 20.0239 18.3369 19.1803 19.1805C18.3366 20.0241 17.1928 20.4986 15.9998 20.5Z" fill="black"/>
</svg>
