<svg width="512" height="512" viewBox="0 0 512 512" fill="none" xmlns="http://www.w3.org/2000/svg">
<path fill-rule="evenodd" clip-rule="evenodd" d="M512 0H0V512H512V0ZM325 367L346 392C416 391 443 344 443 344C443 240 397 157 397 157C350 124 307 124 307 124L302 128C355 142 389 169 388 170C333 128 193 124 125 170C125 170 150 144 208 128L205 124C205 124 162 124 115 157C115 157 69 240 69 344C69 344 96 391 166 392L189 367C147 354 133 328 133 328C188 379 330 377 382 328C382 328 366 356 325 367ZM229 279C229 298.33 214.225 314 196 314C177.775 314 163 298.33 163 279C163 259.67 177.775 244 196 244C214.225 244 229 259.67 229 279ZM312 314C330.225 314 345 298.33 345 279C345 259.67 330.225 244 312 244C293.775 244 279 259.67 279 279C279 298.33 293.775 314 312 314Z" fill="#AAFFE4"/>
</svg>
