<svg width="512" height="512" viewBox="0 0 512 512" fill="none" xmlns="http://www.w3.org/2000/svg">
<path fill-rule="evenodd" clip-rule="evenodd" d="M512 0H0V512H512V0ZM397 164C411.226 164.04 425.145 159.864 437 152C426.958 165.775 415.196 178.209 402 189C404.134 225.954 395.97 262.776 378.418 295.366C360.866 327.955 334.614 355.035 302.584 373.589C270.554 392.144 234.004 401.445 197.001 400.458C159.998 399.472 123.995 388.235 93 368C130.009 368.235 166.357 358.196 198 339C183.018 338.675 168.51 333.683 156.5 324.72C144.49 315.757 135.576 303.27 131 289C141.607 291.073 152.544 290.731 163 288C147.292 284.422 133.237 275.679 123.085 263.17C112.933 250.661 107.269 235.108 107 219C116.987 223.761 127.937 226.156 139 226C124.342 215.839 113.976 200.6 109.912 183.233C105.847 165.867 108.373 147.61 117 132C134.63 153.812 156.65 171.672 181.63 184.42C206.611 197.169 233.993 204.521 262 206C258.82 190.751 260.67 174.882 267.275 160.774C273.879 146.666 284.88 135.08 298.628 127.756C312.376 120.431 328.128 117.762 343.521 120.151C358.914 122.539 373.118 129.854 384 141C400.505 140.66 416.393 134.658 429 124C423.597 140.805 412.209 155.04 397 164Z" fill="#AAFFE4"/>
</svg>
