<?xml version="1.0" encoding="utf-8"?>
<!-- Generator: Adobe Illustrator 16.0.0, SVG Export Plug-In . SVG Version: 6.00 Build 0)  -->
<!DOCTYPE svg PUBLIC "-//W3C//DTD SVG 1.1//EN" "http://www.w3.org/Graphics/SVG/1.1/DTD/svg11.dtd">
<svg version="1.1" id="Layer_1" xmlns="http://www.w3.org/2000/svg" xmlns:xlink="http://www.w3.org/1999/xlink" x="0px" y="0px"
	 width="512px" height="512px" viewBox="0 0 512 512" enable-background="new 0 0 512 512" xml:space="preserve">
<path fill="#aaffe4" d="M461.5,115.92c0-36.406-29.012-65.42-65.42-65.42H115.92c-36.406,0-66.42,29.014-66.42,65.42v280.16
	c0,36.408,30.014,66.42,66.42,66.42h280.16c36.408,0,65.42-30.012,65.42-66.42V115.92z M375.601,259.621
	c-5.58,22.825-18.866,43.3-36.099,59.08c-33.535,30.361-79.981,44.914-124.859,42.025c-43.143-2.636-85.599-23.899-111.083-59.182
	c2.229,1.3,4.098,3.099,6.226,4.543c19.731,14.275,46,18.813,69.459,12.44c14.235-3.674,27.162-11.636,37.486-22.036
	c-6.606,0.446-13.938-0.729-18.725-5.705c-2.985-2.845-4.217-7.521-2.422-11.33c2.173-4.809,7.001-7.544,11.563-9.697
	c-14.971,2.141-31.286-4.836-38.187-18.677c5.058-6.035,13.141-7.966,20.65-8.558c-8.739-2.547-17.713-5.665-24.338-12.187
	c-5.267-4.937-8.69-11.785-9.716-18.918c6.186-1.151,12.396-2.559,18.737-2.293c-14.375-7.483-27.516-21.73-26.37-38.957
	c27.263,9.946,54.085,21.286,79.698,34.982c8.96,4.92,16.412,12.046,23.735,19.071c7.097-18.428,14.713-36.927,26.257-53.093
	c6.188-8.504,13.486-16.418,22.45-22.021c-0.35,2.786-1.778,5.218-3.102,7.634c6.694-5.051,14.448-8.96,22.865-9.946
	c-1.167,5.031-5.938,7.665-10.1,9.952c6.281-1.857,12.404-4.597,19.027-5.049c1.763-0.063,4.285,0.012,4.912,2.066
	c0.95,2.559-1.641,4.544-3.604,5.61c-7.222,3.728-15.575,4.275-22.922,7.719c15.101-1.418,30.176,4.436,41.627,14.098
	c13.667,11.251,22.7,27.539,25.995,44.859c12.083,3.247,25.143,0.897,36.48-3.923c-5.701,12.911-20.218,18.806-33.479,19.956
	c11.02,4.16,23.146,4.868,34.794,3.633C403.323,255.952,389.035,259.934,375.601,259.621z"/>
</svg>
