<svg width="64" height="64" fill="none" xmlns="http://www.w3.org/2000/svg"><circle cx="32" cy="32" r="32" fill="#141D2F"/><path d="M23.284 28.689v-8.83l6.104-5.09 8.665 3.573v8.78l-6.087 4.92-8.682-3.353Z" fill="#141D2F"/><path d="M23.284 19.859v8.83l8.682 3.353M23.284 19.86l8.682 3.606m-8.682-3.606 6.104-5.09 8.665 3.573m-6.087 13.7 6.087-4.92v-8.78m-6.087 13.7v-8.577m6.087-5.123-6.087 5.123" stroke="#EDFFB9"/><path d="M32 41.024v-8.83l6.104-5.089 8.665 3.572v8.78l-6.087 4.92L32 41.025Z" fill="#141D2F"/><path d="M32 32.194v8.83l8.682 3.354M32 32.194l8.682 3.606M32 32.194l6.104-5.089 8.665 3.572m-6.087 13.7 6.087-4.92v-8.78m-6.087 13.7V35.8m6.087-5.122L40.682 35.8" stroke="#EDFFB9"/><path d="M32 32.346v-8.83l6.104-5.09L46.769 22v8.78l-6.087 4.92L32 32.346Z" fill="#141D2F"/><path d="M32 23.515v8.83l8.682 3.354M32 23.516l8.682 3.606M32 23.515l6.104-5.089L46.769 22m-6.087 13.7 6.087-4.92v-8.78m-6.087 13.7v-8.577m6.087-5.123-6.087 5.123" stroke="#EDFFB9"/><path d="M17.231 42.372v-8.83l6.104-5.09L32 32.026v8.78l-6.087 4.92-8.682-3.353Z" fill="#141D2F"/><path d="M17.231 33.542v8.83l8.682 3.354M17.23 33.542l8.682 3.606m-8.682-3.606 6.104-5.09L32 32.026m-6.087 13.7L32 40.806v-8.78m-6.087 13.7v-8.577M32 32.025l-6.087 5.123" stroke="#EDFFB9"/><path d="M17.231 33.736v-8.83l6.104-5.09L32 23.39v8.78l-6.087 4.92-8.682-3.353Z" fill="#141D2F"/><path d="M17.231 24.906v8.83l8.682 3.353M17.23 24.906l8.682 3.606m-8.682-3.606 6.104-5.09L32 23.39m-6.087 13.7L32 32.17v-8.78m-6.087 13.7v-8.577M32 23.389l-6.087 5.123" stroke="#EDFFB9"/><path d="M26.01 45.878v-8.83l6.104-5.09 8.665 3.573v8.78l-6.087 4.92-8.682-3.353Z" fill="#141D2F"/><path d="M26.01 37.047v8.83l8.682 3.354M26.01 37.047l8.682 3.607m-8.682-3.607 6.104-5.089 8.665 3.573m-6.087 13.7 6.087-4.92v-8.78m-6.087 13.7v-8.577m6.087-5.123-6.087 5.123" stroke="#EDFFB9"/><path d="M26.01 37.241v-8.83l6.104-5.09 8.665 3.573v8.78l-6.087 4.92-8.682-3.353Z" fill="#141D2F"/><path d="M26.01 28.411v8.83l8.682 3.354M26.01 28.41l8.682 3.606m-8.682-3.606 6.104-5.09 8.665 3.573m-6.087 13.7 6.087-4.92v-8.78m-6.087 13.7v-8.577m6.087-5.123-6.087 5.123" stroke="#EDFFB9"/></svg>