<svg width="32" height="32" viewBox="0 0 32 32" fill="none" xmlns="http://www.w3.org/2000/svg">
<path d="M29.7831 13.5443C29.7314 13.2514 29.6147 12.9737 29.4418 12.7316C29.2688 12.4895 29.0439 12.2892 28.7835 12.1452L26.2181 10.7211C26.0537 10.4023 25.8739 10.0904 25.6806 9.78849L25.73 6.85203C25.7358 6.5549 25.675 6.26024 25.5521 5.98966C25.4292 5.71908 25.2473 5.47943 25.0197 5.2883C23.7578 4.22541 22.3172 3.39496 20.765 2.83561C20.4854 2.73391 20.1865 2.69605 19.8904 2.72478C19.5942 2.75352 19.3082 2.84813 19.0534 3.00168L16.5374 4.51139C16.1789 4.49436 15.8188 4.49399 15.461 4.51053L12.9427 2.99955C12.6882 2.8459 12.4026 2.75117 12.1068 2.7223C11.811 2.69344 11.5125 2.73117 11.2332 2.83274C9.68169 3.39419 8.24219 4.2266 6.98166 5.29123C6.7538 5.48255 6.57162 5.7224 6.44845 5.99323C6.32528 6.26406 6.26424 6.55901 6.26981 6.85648L6.31913 9.79026C6.12522 10.0921 5.94492 10.4038 5.78019 10.7221L3.21256 12.1474C2.95181 12.2916 2.72665 12.4923 2.5536 12.7349C2.38055 12.9775 2.264 13.2557 2.2125 13.5492C1.92385 15.1721 1.92528 16.8333 2.21671 18.4557C2.26847 18.7487 2.38509 19.0264 2.55804 19.2685C2.731 19.5106 2.9559 19.7109 3.21629 19.8548L5.78172 21.279C5.94608 21.5978 6.12589 21.9097 6.31919 22.2116L6.26982 25.148C6.26402 25.4452 6.3248 25.7398 6.4477 26.0104C6.57061 26.281 6.75251 26.5206 6.98008 26.7118C8.24202 27.7747 9.68262 28.6051 11.2348 29.1645C11.5145 29.2662 11.8133 29.3041 12.1095 29.2753C12.4056 29.2466 12.6916 29.152 12.9464 28.9984L15.4624 27.4887C15.821 27.5058 16.1811 27.506 16.5389 27.4895L19.0572 29.0005C19.3116 29.1542 19.5972 29.2489 19.893 29.2777C20.1888 29.3066 20.4873 29.2689 20.7666 29.1673C22.3181 28.6059 23.7576 27.7735 25.0182 26.7088C25.246 26.5175 25.4282 26.2777 25.5514 26.0068C25.6745 25.736 25.7356 25.4411 25.73 25.1436L25.6807 22.2098C25.8746 21.9079 26.0549 21.5962 26.2196 21.278L28.7873 19.8527C29.048 19.7085 29.2732 19.5077 29.4462 19.2652C29.6192 19.0226 29.7358 18.7444 29.7873 18.4509C30.076 16.828 30.0745 15.1668 29.7831 13.5443ZM21.4994 16C21.4994 17.0878 21.1769 18.1512 20.5725 19.0557C19.9682 19.9601 19.1092 20.6651 18.1042 21.0814C17.0992 21.4977 15.9933 21.6066 14.9264 21.3944C13.8595 21.1821 12.8795 20.6583 12.1103 19.8891C11.3411 19.1199 10.8173 18.1399 10.6051 17.073C10.3929 16.0061 10.5018 14.9003 10.9181 13.8953C11.3344 12.8903 12.0393 12.0313 12.9438 11.427C13.8483 10.8226 14.9116 10.5 15.9994 10.5C17.4576 10.5017 18.8556 11.0817 19.8867 12.1128C20.9178 13.1439 21.4978 14.5419 21.4994 16Z" fill="black"/>
</svg>
