<svg width="32" height="32" viewBox="0 0 32 32" fill="none" xmlns="http://www.w3.org/2000/svg">
<path d="M4 16H9L11 13L15 19L17 16H20" stroke="black" stroke-width="1.5" stroke-linecap="round" stroke-linejoin="round"/>
<path d="M3.51428 11.9992C3.50483 11.8334 3.50006 11.667 3.5 11.5C3.50025 9.99768 4.02082 8.5418 4.97318 7.3799C5.92555 6.21801 7.25093 5.42181 8.72399 5.12669C10.197 4.83156 11.7269 5.05572 13.0533 5.76105C14.3798 6.46638 15.421 7.60935 16 8.99563L16 8.99565C16.579 7.60936 17.6202 6.46639 18.9467 5.76106C20.2731 5.05572 21.8029 4.83156 23.276 5.12669C24.7491 5.42181 26.0745 6.21801 27.0268 7.3799C27.9792 8.5418 28.4997 9.99768 28.5 11.5C28.5 20 16 27 16 27C16 27 11.0069 24.2039 7.33219 20.0001" stroke="black" stroke-width="1.5" stroke-linecap="round" stroke-linejoin="round"/>
</svg>
