<svg width="32" height="32" viewBox="0 0 32 32" fill="none" xmlns="http://www.w3.org/2000/svg">
<path d="M28.0784 6.48825C27.3994 5.72714 26.5712 5.1137 25.6452 4.68599C24.7193 4.25829 23.7153 4.02545 22.6956 4.00192C21.6788 3.98055 20.6682 4.16379 19.7237 4.54075C18.7792 4.91771 17.9201 5.4807 17.1975 6.19626L16.0003 7.39352L15.0628 6.457C12.1467 3.53805 7.40065 3.29294 4.49049 5.91989C3.73197 6.60029 3.12011 7.42819 2.6923 8.353C2.26449 9.27782 2.02971 10.2801 2.00229 11.2987C1.97487 12.3174 2.15539 13.3309 2.53283 14.2773C2.91027 15.2238 3.4767 16.0835 4.19752 16.8037L14.5862 27.1924C14.9615 27.5669 15.47 27.7773 16.0003 27.7773C16.5305 27.7773 17.039 27.5669 17.4143 27.1924L27.5432 17.0634C30.4612 14.1445 30.7014 9.40036 28.0784 6.48825Z" fill="black"/>
</svg>
