<svg width="32" height="32" viewBox="0 0 32 32" fill="none" xmlns="http://www.w3.org/2000/svg">
<path d="M25.2701 25.1041C27.6603 22.6767 29 19.4067 29 16C29 12.5933 27.6603 9.3233 25.2701 6.89588C25.2221 6.83378 25.1663 6.77806 25.1042 6.73004C22.6768 4.33976 19.4067 3 16 3C12.5933 3 9.32318 4.33976 6.89575 6.73004C6.83366 6.77806 6.77793 6.83378 6.72992 6.89588C4.33972 9.3233 3 12.5933 3 16C3 19.4067 4.33972 22.6767 6.72992 25.1041C6.75409 25.135 6.78003 25.1645 6.80762 25.1924C6.83547 25.22 6.86492 25.2459 6.89581 25.27C9.32324 27.6603 12.5933 29 16 29C19.4067 29 22.6768 27.6603 25.1042 25.27C25.1351 25.2459 25.1645 25.22 25.1924 25.1924C25.22 25.1645 25.2459 25.135 25.2701 25.1041ZM12 16C12 15.2089 12.2346 14.4355 12.6741 13.7777C13.1136 13.1199 13.7384 12.6072 14.4693 12.3045C15.2002 12.0017 16.0044 11.9225 16.7804 12.0769C17.5563 12.2312 18.269 12.6122 18.8284 13.1716C19.3878 13.731 19.7688 14.4437 19.9231 15.2196C20.0775 15.9956 19.9983 16.7998 19.6955 17.5307C19.3928 18.2616 18.8801 18.8864 18.2223 19.3259C17.5645 19.7654 16.7911 20 16 20C14.9395 19.9988 13.9228 19.577 13.1729 18.8271C12.423 18.0772 12.0012 17.0605 12 16ZM23.0351 7.5506L19.4734 11.1123C18.4597 10.3888 17.2454 10 16 10C14.7546 10 13.5403 10.3888 12.5265 11.1123L8.9649 7.5506C10.9388 5.90268 13.4286 5 16 5C18.5714 5 21.0612 5.90268 23.0351 7.5506ZM8.9649 24.4494L12.5265 20.8878C13.5403 21.6112 14.7546 22 16 22C17.2454 22 18.4597 21.6112 19.4734 20.8878L23.0351 24.4494C21.0612 26.0973 18.5714 27 16 27C13.4286 27 10.9388 26.0973 8.9649 24.4494Z" fill="black"/>
</svg>
