<svg width="32" height="32" viewBox="0 0 32 32" fill="none" xmlns="http://www.w3.org/2000/svg">
<path d="M11.7568 20.2415L20.2421 11.7562" stroke="black" stroke-width="1.5" stroke-linecap="round" stroke-linejoin="round"/>
<path d="M18.1205 22.3638L14.5849 25.8993C13.4596 27.0242 11.9336 27.6561 10.3425 27.656C8.75138 27.6558 7.22547 27.0237 6.10038 25.8986C4.97528 24.7735 4.34315 23.2476 4.34302 21.6565C4.34288 20.0654 4.97475 18.5394 6.09965 17.4141L9.63518 13.8785" stroke="black" stroke-width="1.5" stroke-linecap="round" stroke-linejoin="round"/>
<path d="M22.3637 18.1206L25.8992 14.5851C27.0241 13.4598 27.656 11.9337 27.6559 10.3426C27.6557 8.75151 27.0236 7.22559 25.8985 6.1005C24.7734 4.97541 23.2475 4.34328 21.6564 4.34314C20.0653 4.343 18.5392 4.97487 17.414 6.09977L13.8784 9.6353" stroke="black" stroke-width="1.5" stroke-linecap="round" stroke-linejoin="round"/>
</svg>
