<svg width="32" height="32" viewBox="0 0 32 32" fill="none" xmlns="http://www.w3.org/2000/svg">
<path d="M11 16.859L22.2396 26.7499C22.3697 26.8644 22.5272 26.9431 22.6968 26.9783C22.8664 27.0136 23.0423 27.0041 23.2072 26.951C23.372 26.8978 23.5203 26.8027 23.6373 26.675C23.7544 26.5474 23.8363 26.3915 23.875 26.2226L28.5767 5.70604C28.6174 5.52865 28.6088 5.34354 28.5521 5.17064C28.4953 4.99774 28.3924 4.84361 28.2545 4.72487C28.1166 4.60613 27.9489 4.52727 27.7695 4.49679C27.59 4.46631 27.4057 4.48537 27.2363 4.55191L4.16673 13.615C3.96567 13.694 3.79559 13.8359 3.68195 14.0196C3.56831 14.2033 3.51721 14.4189 3.53629 14.6341C3.55538 14.8492 3.64362 15.0525 3.78783 15.2133C3.93203 15.3741 4.12444 15.4839 4.33626 15.5263L11 16.859Z" stroke="black" stroke-width="1.5" stroke-linecap="round" stroke-linejoin="round"/>
<path d="M11 16.8591L28.014 4.57117" stroke="black" stroke-width="1.5" stroke-linecap="round" stroke-linejoin="round"/>
<path d="M16.6134 21.7988L12.7071 25.7051C12.5673 25.8449 12.3891 25.9402 12.1951 25.9787C12.0011 26.0173 11.8 25.9975 11.6173 25.9218C11.4346 25.8461 11.2784 25.718 11.1685 25.5535C11.0587 25.3891 11 25.1957 11 24.998V16.859" stroke="black" stroke-width="1.5" stroke-linecap="round" stroke-linejoin="round"/>
</svg>
