<svg width="48" height="49" viewBox="0 0 48 49" fill="none" xmlns="http://www.w3.org/2000/svg">
<g clip-path="url(#clip0)">
<path d="M24.9712 35.5667L24.9712 13.5056C24.9712 12.9702 24.5371 12.5361 24.0017 12.5361C23.4663 12.5361 23.0323 12.9702 23.0323 13.5056L23.0323 35.5667C23.0323 36.1021 23.4663 36.5361 24.0017 36.5361C24.5371 36.5361 24.9712 36.1021 24.9712 35.5667Z" fill="#58FFCA" stroke="#58FFCA"/>
<path d="M23.9998 14.8777L31.5872 22.465C31.9658 22.8436 32.5797 22.8436 32.9583 22.465C33.3368 22.0864 33.3368 21.4726 32.9583 21.0939L24.6854 12.8211C24.3068 12.4425 23.693 12.4425 23.3143 12.8211L15.0415 21.0939C14.8521 21.2832 14.7575 21.5314 14.7575 21.7795C14.7575 22.0276 14.8521 22.2758 15.0415 22.465C15.4201 22.8436 16.0339 22.8436 16.4125 22.465L23.9998 14.8777Z" fill="#58FFCA" stroke="#58FFCA"/>
</g>
<defs>
<clipPath id="clip0">
<rect width="48" height="48" fill="white" transform="translate(48 48.5361) rotate(-180)"/>
</clipPath>
</defs>
</svg>
