<svg width="512" height="512" fill="none" xmlns="http://www.w3.org/2000/svg"><path fill-rule="evenodd" clip-rule="evenodd" d="M512 0H0v512h512V0zM325 367l21 25c70-1 97-48 97-48 0-104-46-187-46-187-47-33-90-33-90-33l-5 4c53 14 87 41 86 42-55-42-195-46-263 0 0 0 25-26 83-42l-3-4s-43 0-90 33c0 0-46 83-46 187 0 0 27 47 97 48l23-25c-42-13-56-39-56-39 55 51 197 49 249 0 0 0-16 28-57 39zm-96-88c0 19.33-14.775 35-33 35s-33-15.67-33-35 14.775-35 33-35 33 15.67 33 35zm83 35c18.225 0 33-15.67 33-35s-14.775-35-33-35-33 15.67-33 35 14.775 35 33 35z" fill="#AAFFE4"/></svg>