<svg width="512" height="512" fill="none" xmlns="http://www.w3.org/2000/svg"><path fill-rule="evenodd" clip-rule="evenodd" d="M512 0H0v512h512V0zM397 164a71.995 71.995 0 0 0 40-12 199.96 199.96 0 0 1-35 37 200.003 200.003 0 0 1-99.416 184.589 199.992 199.992 0 0 1-105.583 26.869A199.993 199.993 0 0 1 93 368a199.993 199.993 0 0 0 105-29 71.998 71.998 0 0 1-67-50 71.987 71.987 0 0 0 32-1 72.001 72.001 0 0 1-56-69 72.003 72.003 0 0 0 32 7 72 72 0 0 1-22-94 199.993 199.993 0 0 0 145 74 71.997 71.997 0 0 1 36.628-78.244A71.997 71.997 0 0 1 384 141a72 72 0 0 0 45-17 72.005 72.005 0 0 1-32 40z" fill="#AAFFE4"/></svg>