<svg width="25" height="25" viewBox="0 0 25 25" fill="none" xmlns="http://www.w3.org/2000/svg">
<g clip-path="url(#clip0)">
<path d="M24.9844 12.6897C24.9844 19.3172 19.6119 24.6898 12.9844 24.6898C6.35696 24.6898 0.984375 19.3172 0.984375 12.6897C0.984375 6.06228 6.35696 0.689697 12.9844 0.689697C19.6118 0.689697 24.9844 6.06228 24.9844 12.6897Z" fill="#6584E0"/>
<path d="M12.9841 4.81958L12.8828 5.16387V15.1544L12.9841 15.2556L17.6216 12.5143L12.9841 4.81958Z" fill="#FCFAFA"/>
<path d="M12.9813 4.82007L8.34375 12.5148L12.9813 15.2561V10.407V4.82007Z" fill="#FCFAFA"/>
<path d="M12.9868 16.765L12.9297 16.8346V20.3934L12.9868 20.5601L17.6271 14.0251L12.9868 16.765Z" fill="#FCFAFA"/>
<path d="M12.9813 20.5602V16.765L8.34375 14.0251L12.9813 20.5602Z" fill="#FCFAFA"/>
<path d="M12.9844 15.2565L17.6218 12.5153L12.9844 10.4075V15.2565Z" fill="#6584E0" fill-opacity="0.8"/>
<path d="M8.34375 12.5153L12.9812 15.2566V10.4075L8.34375 12.5153Z" fill="#6584E0" fill-opacity="0.6"/>
</g>
<defs>
<clipPath id="clip0">
<rect width="24" height="24.0001" fill="white" transform="translate(0.984375 0.689697)"/>
</clipPath>
</defs>
</svg>
