<svg width="24" height="24" fill="none" xmlns="http://www.w3.org/2000/svg"><path d="M22.021 12c0 5.523-4.482 10-10.01 10C6.48 22 2 17.523 2 12S6.482 2 12.01 2c5.53 0 10.011 4.477 10.011 10" stroke="#58FFCA"/><path d="m12.009 5.441-.085.287v8.326l.085.084 3.868-2.284L12.01 5.44Z" fill="#91FFDC"/><path d="m12.008 5.441-3.869 6.413 3.869 2.284V5.441Z" fill="#C0FFEB"/><path d="m12.012 15.396-.047.058v2.966l.047.14 3.871-5.447-3.87 2.284Z" fill="#8CFFDB"/><path d="M12.008 18.56v-3.163l-3.869-2.284 3.869 5.446Z" fill="#A4FFE2"/><path d="m12.01 14.139 3.868-2.285-3.869-1.756v4.04Z" fill="#58FFCA"/><path d="m8.14 11.854 3.868 2.285v-4.041l-3.869 1.756Z" fill="#8CFFDB"/></svg>