<svg width="406" height="407" fill="none" xmlns="http://www.w3.org/2000/svg"><g clip-path="url(#a)" fill="#58FFCA"><path d="M.708 6.567V5.205L8.03.965v1.413L1.985 5.8v.136L8.03 9.36v1.447L.708 6.567zM10.527 4.745V3.587h8.106v1.158h-8.106zm0 3.406V6.993h8.106V8.15h-8.106zM20.738 4.745V3.587h8.106v1.158h-8.106zm0 3.406V6.993h8.106V8.15h-8.106zM30.949 4.745V3.587h8.105v1.158H30.95zm0 3.406V6.993h8.105V8.15H30.95zM41.16 4.745V3.587h8.105v1.158H41.16zm0 3.406V6.993h8.105V8.15H41.16zM51.37 4.745V3.587h8.106v1.158H51.37zm0 3.406V6.993h8.106V8.15H51.37zM61.581 4.745V3.587h8.106v1.158h-8.106zm0 3.406V6.993h8.106V8.15h-8.106zM71.792 4.745V3.587h8.106v1.158h-8.106zm0 3.406V6.993h8.106V8.15h-8.106zM82.003 4.745V3.587h8.106v1.158h-8.106zm0 3.406V6.993h8.106V8.15h-8.106zM92.214 4.745V3.587h8.106v1.158h-8.106zm0 3.406V6.993h8.106V8.15h-8.106zM102.425 4.745V3.587h8.106v1.158h-8.106zm0 3.406V6.993h8.106V8.15h-8.106zM112.636 4.745V3.587h8.106v1.158h-8.106zm0 3.406V6.993h8.106V8.15h-8.106zM122.847 4.745V3.587h8.106v1.158h-8.106zm0 3.406V6.993h8.106V8.15h-8.106zM133.058 4.745V3.587h8.105v1.158h-8.105zm0 3.406V6.993h8.105V8.15h-8.105zM143.268 4.745V3.587h8.106v1.158h-8.106zm0 3.406V6.993h8.106V8.15h-8.106zM153.479 4.745V3.587h8.106v1.158h-8.106zm0 3.406V6.993h8.106V8.15h-8.106zM163.69 4.745V3.587h8.106v1.158h-8.106zm0 3.406V6.993h8.106V8.15h-8.106zM173.901 4.745V3.587h8.106v1.158h-8.106zm0 3.406V6.993h8.106V8.15h-8.106zM184.112 4.745V3.587h8.106v1.158h-8.106zm0 3.406V6.993h8.106V8.15h-8.106zM194.323 4.745V3.587h8.106v1.158h-8.106zm0 3.406V6.993h8.106V8.15h-8.106zM204.534 4.745V3.587h8.106v1.158h-8.106zm0 3.406V6.993h8.106V8.15h-8.106zM214.745 4.745V3.587h8.106v1.158h-8.106zm0 3.406V6.993h8.106V8.15h-8.106zM224.956 4.745V3.587h8.106v1.158h-8.106zm0 3.406V6.993h8.106V8.15h-8.106zM235.167 4.745V3.587h8.106v1.158h-8.106zm0 3.406V6.993h8.106V8.15h-8.106zM245.377 4.745V3.587h8.106v1.158h-8.106zm0 3.406V6.993h8.106V8.15h-8.106zM255.588 4.745V3.587h8.106v1.158h-8.106zm0 3.406V6.993h8.106V8.15h-8.106zM265.799 4.745V3.587h8.106v1.158h-8.106zm0 3.406V6.993h8.106V8.15h-8.106zM276.01 4.745V3.587h8.106v1.158h-8.106zm0 3.406V6.993h8.106V8.15h-8.106zM286.221 4.745V3.587h8.106v1.158h-8.106zm0 3.406V6.993h8.106V8.15h-8.106zM296.432 4.745V3.587h8.106v1.158h-8.106zm0 3.406V6.993h8.106V8.15h-8.106zM306.643 4.745V3.587h8.106v1.158h-8.106zm0 3.406V6.993h8.106V8.15h-8.106zM316.854 4.745V3.587h8.106v1.158h-8.106zm0 3.406V6.993h8.106V8.15h-8.106zM327.065 4.745V3.587h8.106v1.158h-8.106zm0 3.406V6.993h8.106V8.15h-8.106zM337.276 4.745V3.587h8.106v1.158h-8.106zm0 3.406V6.993h8.106V8.15h-8.106zM347.486 4.745V3.587h8.106v1.158h-8.106zm0 3.406V6.993h8.106V8.15h-8.106zM357.697 4.745V3.587h8.106v1.158h-8.106zm0 3.406V6.993h8.106V8.15h-8.106zM367.908 4.745V3.587h8.106v1.158h-8.106zm0 3.406V6.993h8.106V8.15h-8.106zM.708 23.596v-1.362l7.322-4.24v1.413L1.985 22.83v.136L8.03 26.39v1.448l-7.322-4.24zM10.527 21.774v-1.158h8.106v1.158h-8.106zm0 3.406v-1.158h8.106v1.158h-8.106zM20.738 21.774v-1.158h8.106v1.158h-8.106zm0 3.406v-1.158h8.106v1.158h-8.106zM30.949 21.774v-1.158h8.105v1.158H30.95zm0 3.406v-1.158h8.105v1.158H30.95zM41.16 21.774v-1.158h8.105v1.158H41.16zm0 3.406v-1.158h8.105v1.158H41.16zM51.37 21.774v-1.158h8.106v1.158H51.37zm0 3.406v-1.158h8.106v1.158H51.37zM61.581 21.774v-1.158h8.106v1.158h-8.106zm0 3.406v-1.158h8.106v1.158h-8.106zM71.792 21.774v-1.158h8.106v1.158h-8.106zm0 3.406v-1.158h8.106v1.158h-8.106zM82.003 21.774v-1.158h8.106v1.158h-8.106zm0 3.406v-1.158h8.106v1.158h-8.106zM92.214 21.774v-1.158h8.106v1.158h-8.106zm0 3.406v-1.158h8.106v1.158h-8.106zM102.425 21.774v-1.158h8.106v1.158h-8.106zm0 3.406v-1.158h8.106v1.158h-8.106zM112.636 21.774v-1.158h8.106v1.158h-8.106zm0 3.406v-1.158h8.106v1.158h-8.106zM122.847 21.774v-1.158h8.106v1.158h-8.106zm0 3.406v-1.158h8.106v1.158h-8.106zM133.058 21.774v-1.158h8.105v1.158h-8.105zm0 3.406v-1.158h8.105v1.158h-8.105zM143.268 21.774v-1.158h8.106v1.158h-8.106zm0 3.406v-1.158h8.106v1.158h-8.106zM153.479 21.774v-1.158h8.106v1.158h-8.106zm0 3.406v-1.158h8.106v1.158h-8.106zM163.69 21.774v-1.158h8.106v1.158h-8.106zm0 3.406v-1.158h8.106v1.158h-8.106zM173.901 21.774v-1.158h8.106v1.158h-8.106zm0 3.406v-1.158h8.106v1.158h-8.106zM184.112 21.774v-1.158h8.106v1.158h-8.106zm0 3.406v-1.158h8.106v1.158h-8.106zM194.323 21.774v-1.158h8.106v1.158h-8.106zm0 3.406v-1.158h8.106v1.158h-8.106zM204.534 21.774v-1.158h8.106v1.158h-8.106zm0 3.406v-1.158h8.106v1.158h-8.106zM214.745 21.774v-1.158h8.106v1.158h-8.106zm0 3.406v-1.158h8.106v1.158h-8.106zM224.956 21.774v-1.158h8.106v1.158h-8.106zm0 3.406v-1.158h8.106v1.158h-8.106zM235.167 21.774v-1.158h8.106v1.158h-8.106zm0 3.406v-1.158h8.106v1.158h-8.106zM245.377 21.774v-1.158h8.106v1.158h-8.106zm0 3.406v-1.158h8.106v1.158h-8.106zM255.588 21.774v-1.158h8.106v1.158h-8.106zm0 3.406v-1.158h8.106v1.158h-8.106zM265.799 21.774v-1.158h8.106v1.158h-8.106zm0 3.406v-1.158h8.106v1.158h-8.106zM276.01 21.774v-1.158h8.106v1.158h-8.106zm0 3.406v-1.158h8.106v1.158h-8.106zM286.221 21.774v-1.158h8.106v1.158h-8.106zm0 3.406v-1.158h8.106v1.158h-8.106zM296.432 21.774v-1.158h8.106v1.158h-8.106zm0 3.406v-1.158h8.106v1.158h-8.106zM306.643 21.774v-1.158h8.106v1.158h-8.106zm0 3.406v-1.158h8.106v1.158h-8.106zM316.854 21.774v-1.158h8.106v1.158h-8.106zm0 3.406v-1.158h8.106v1.158h-8.106zM327.065 21.774v-1.158h8.106v1.158h-8.106zm0 3.406v-1.158h8.106v1.158h-8.106zM337.276 21.774v-1.158h8.106v1.158h-8.106zm0 3.406v-1.158h8.106v1.158h-8.106zM347.486 21.774v-1.158h8.106v1.158h-8.106zm0 3.406v-1.158h8.106v1.158h-8.106zM357.697 21.774v-1.158h8.106v1.158h-8.106zm0 3.406v-1.158h8.106v1.158h-8.106zM367.908 21.774v-1.158h8.106v1.158h-8.106zm0 3.406v-1.158h8.106v1.158h-8.106zM404.813 400.453v1.362l-7.323 4.241v-1.414l6.046-3.423v-.136l-6.046-3.423v-1.447l7.323 4.24zM394.994 402.275v1.158h-8.106v-1.158h8.106zm0-3.406v1.158h-8.106v-1.158h8.106zM384.783 402.275v1.158h-8.106v-1.158h8.106zm0-3.406v1.158h-8.106v-1.158h8.106zM374.572 402.275v1.158h-8.106v-1.158h8.106zm0-3.406v1.158h-8.106v-1.158h8.106zM364.361 402.275v1.158h-8.106v-1.158h8.106zm0-3.406v1.158h-8.106v-1.158h8.106zM354.15 402.275v1.158h-8.106v-1.158h8.106zm0-3.406v1.158h-8.106v-1.158h8.106zM343.939 402.275v1.158h-8.106v-1.158h8.106zm0-3.406v1.158h-8.106v-1.158h8.106zM333.728 402.275v1.158h-8.106v-1.158h8.106zm0-3.406v1.158h-8.106v-1.158h8.106zM323.517 402.275v1.158h-8.105v-1.158h8.105zm0-3.406v1.158h-8.105v-1.158h8.105zM313.307 402.275v1.158h-8.106v-1.158h8.106zm0-3.406v1.158h-8.106v-1.158h8.106zM303.096 402.275v1.158h-8.106v-1.158h8.106zm0-3.406v1.158h-8.106v-1.158h8.106zM292.885 402.275v1.158h-8.106v-1.158h8.106zm0-3.406v1.158h-8.106v-1.158h8.106zM282.674 402.275v1.158h-8.106v-1.158h8.106zm0-3.406v1.158h-8.106v-1.158h8.106zM272.463 402.275v1.158h-8.106v-1.158h8.106zm0-3.406v1.158h-8.106v-1.158h8.106zM262.252 402.275v1.158h-8.106v-1.158h8.106zm0-3.406v1.158h-8.106v-1.158h8.106zM252.041 402.275v1.158h-8.106v-1.158h8.106zm0-3.406v1.158h-8.106v-1.158h8.106zM241.83 402.275v1.158h-8.106v-1.158h8.106zm0-3.406v1.158h-8.106v-1.158h8.106zM231.619 402.275v1.158h-8.106v-1.158h8.106zm0-3.406v1.158h-8.106v-1.158h8.106zM221.408 402.275v1.158h-8.105v-1.158h8.105zm0-3.406v1.158h-8.105v-1.158h8.105zM211.198 402.275v1.158h-8.106v-1.158h8.106zm0-3.406v1.158h-8.106v-1.158h8.106zM200.987 402.275v1.158h-8.106v-1.158h8.106zm0-3.406v1.158h-8.106v-1.158h8.106zM190.776 402.275v1.158h-8.106v-1.158h8.106zm0-3.406v1.158h-8.106v-1.158h8.106zM180.565 402.275v1.158h-8.106v-1.158h8.106zm0-3.406v1.158h-8.106v-1.158h8.106zM170.354 402.275v1.158h-8.106v-1.158h8.106zm0-3.406v1.158h-8.106v-1.158h8.106zM160.143 402.275v1.158h-8.106v-1.158h8.106zm0-3.406v1.158h-8.106v-1.158h8.106zM149.932 402.275v1.158h-8.106v-1.158h8.106zm0-3.406v1.158h-8.106v-1.158h8.106zM139.721 402.275v1.158h-8.106v-1.158h8.106zm0-3.406v1.158h-8.106v-1.158h8.106zM129.51 402.275v1.158h-8.106v-1.158h8.106zm0-3.406v1.158h-8.106v-1.158h8.106zM119.299 402.275v1.158h-8.105v-1.158h8.105zm0-3.406v1.158h-8.105v-1.158h8.105zM109.089 402.275v1.158h-8.106v-1.158h8.106zm0-3.406v1.158h-8.106v-1.158h8.106zM98.878 402.275v1.158h-8.106v-1.158h8.106zm0-3.406v1.158h-8.106v-1.158h8.106zM88.667 402.275v1.158H80.56v-1.158h8.106zm0-3.406v1.158H80.56v-1.158h8.106zM78.456 402.275v1.158H70.35v-1.158h8.106zm0-3.406v1.158H70.35v-1.158h8.106zM68.245 402.275v1.158h-8.106v-1.158h8.106zm0-3.406v1.158h-8.106v-1.158h8.106zM58.034 402.275v1.158h-8.106v-1.158h8.106zm0-3.406v1.158h-8.106v-1.158h8.106zM47.823 402.275v1.158h-8.106v-1.158h8.106zm0-3.406v1.158h-8.106v-1.158h8.106zM37.612 402.275v1.158h-8.106v-1.158h8.106zm0-3.406v1.158h-8.106v-1.158h8.106zM404.813 383.424v1.362l-7.323 4.24v-1.413l6.046-3.423v-.136l-6.046-3.423v-1.448l7.323 4.241zM394.994 385.246v1.158h-8.106v-1.158h8.106zm0-3.406v1.158h-8.106v-1.158h8.106zM384.783 385.246v1.158h-8.106v-1.158h8.106zm0-3.406v1.158h-8.106v-1.158h8.106zM374.572 385.246v1.158h-8.106v-1.158h8.106zm0-3.406v1.158h-8.106v-1.158h8.106zM364.361 385.246v1.158h-8.106v-1.158h8.106zm0-3.406v1.158h-8.106v-1.158h8.106zM354.15 385.246v1.158h-8.106v-1.158h8.106zm0-3.406v1.158h-8.106v-1.158h8.106zM343.939 385.246v1.158h-8.106v-1.158h8.106zm0-3.406v1.158h-8.106v-1.158h8.106zM333.728 385.246v1.158h-8.106v-1.158h8.106zm0-3.406v1.158h-8.106v-1.158h8.106zM323.517 385.246v1.158h-8.105v-1.158h8.105zm0-3.406v1.158h-8.105v-1.158h8.105zM313.307 385.246v1.158h-8.106v-1.158h8.106zm0-3.406v1.158h-8.106v-1.158h8.106zM303.096 385.246v1.158h-8.106v-1.158h8.106zm0-3.406v1.158h-8.106v-1.158h8.106zM292.885 385.246v1.158h-8.106v-1.158h8.106zm0-3.406v1.158h-8.106v-1.158h8.106zM282.674 385.246v1.158h-8.106v-1.158h8.106zm0-3.406v1.158h-8.106v-1.158h8.106zM272.463 385.246v1.158h-8.106v-1.158h8.106zm0-3.406v1.158h-8.106v-1.158h8.106zM262.252 385.246v1.158h-8.106v-1.158h8.106zm0-3.406v1.158h-8.106v-1.158h8.106zM252.041 385.246v1.158h-8.106v-1.158h8.106zm0-3.406v1.158h-8.106v-1.158h8.106zM241.83 385.246v1.158h-8.106v-1.158h8.106zm0-3.406v1.158h-8.106v-1.158h8.106zM231.619 385.246v1.158h-8.106v-1.158h8.106zm0-3.406v1.158h-8.106v-1.158h8.106zM221.408 385.246v1.158h-8.105v-1.158h8.105zm0-3.406v1.158h-8.105v-1.158h8.105zM211.198 385.246v1.158h-8.106v-1.158h8.106zm0-3.406v1.158h-8.106v-1.158h8.106zM200.987 385.246v1.158h-8.106v-1.158h8.106zm0-3.406v1.158h-8.106v-1.158h8.106zM190.776 385.246v1.158h-8.106v-1.158h8.106zm0-3.406v1.158h-8.106v-1.158h8.106zM180.565 385.246v1.158h-8.106v-1.158h8.106zm0-3.406v1.158h-8.106v-1.158h8.106zM170.354 385.246v1.158h-8.106v-1.158h8.106zm0-3.406v1.158h-8.106v-1.158h8.106zM160.143 385.246v1.158h-8.106v-1.158h8.106zm0-3.406v1.158h-8.106v-1.158h8.106zM149.932 385.246v1.158h-8.106v-1.158h8.106zm0-3.406v1.158h-8.106v-1.158h8.106zM139.721 385.246v1.158h-8.106v-1.158h8.106zm0-3.406v1.158h-8.106v-1.158h8.106zM129.51 385.246v1.158h-8.106v-1.158h8.106zm0-3.406v1.158h-8.106v-1.158h8.106zM119.299 385.246v1.158h-8.105v-1.158h8.105zm0-3.406v1.158h-8.105v-1.158h8.105zM109.089 385.246v1.158h-8.106v-1.158h8.106zm0-3.406v1.158h-8.106v-1.158h8.106zM98.878 385.246v1.158h-8.106v-1.158h8.106zm0-3.406v1.158h-8.106v-1.158h8.106zM88.667 385.246v1.158H80.56v-1.158h8.106zm0-3.406v1.158H80.56v-1.158h8.106zM78.456 385.246v1.158H70.35v-1.158h8.106zm0-3.406v1.158H70.35v-1.158h8.106zM68.245 385.246v1.158h-8.106v-1.158h8.106zm0-3.406v1.158h-8.106v-1.158h8.106zM58.034 385.246v1.158h-8.106v-1.158h8.106zm0-3.406v1.158h-8.106v-1.158h8.106zM47.823 385.246v1.158h-8.106v-1.158h8.106zm0-3.406v1.158h-8.106v-1.158h8.106zM37.612 385.246v1.158h-8.106v-1.158h8.106zm0-3.406v1.158h-8.106v-1.158h8.106zM374.571 368.217v1.158h-8.105v-1.158h8.105zm0-3.406v1.158h-8.105v-1.158h8.105zM364.361 368.217v1.158h-8.106v-1.158h8.106zm0-3.406v1.158h-8.106v-1.158h8.106zM354.15 368.217v1.158h-8.106v-1.158h8.106zm0-3.406v1.158h-8.106v-1.158h8.106zM343.939 368.217v1.158h-8.106v-1.158h8.106zm0-3.406v1.158h-8.106v-1.158h8.106zM333.728 368.217v1.158h-8.106v-1.158h8.106zm0-3.406v1.158h-8.106v-1.158h8.106zM323.517 368.217v1.158h-8.106v-1.158h8.106zm0-3.406v1.158h-8.106v-1.158h8.106zM313.306 368.217v1.158H305.2v-1.158h8.106zm0-3.406v1.158H305.2v-1.158h8.106zM303.095 368.217v1.158h-8.106v-1.158h8.106zm0-3.406v1.158h-8.106v-1.158h8.106zM292.884 368.217v1.158h-8.106v-1.158h8.106zm0-3.406v1.158h-8.106v-1.158h8.106zM282.673 368.217v1.158h-8.106v-1.158h8.106zm0-3.406v1.158h-8.106v-1.158h8.106zM272.462 368.217v1.158h-8.105v-1.158h8.105zm0-3.406v1.158h-8.105v-1.158h8.105zM262.252 368.217v1.158h-8.106v-1.158h8.106zm0-3.406v1.158h-8.106v-1.158h8.106zM252.041 368.217v1.158h-8.106v-1.158h8.106zm0-3.406v1.158h-8.106v-1.158h8.106zM241.83 368.217v1.158h-8.106v-1.158h8.106zm0-3.406v1.158h-8.106v-1.158h8.106zM231.619 368.217v1.158h-8.106v-1.158h8.106zm0-3.406v1.158h-8.106v-1.158h8.106zM221.408 368.217v1.158h-8.106v-1.158h8.106zm0-3.406v1.158h-8.106v-1.158h8.106zM211.197 368.217v1.158h-8.106v-1.158h8.106zm0-3.406v1.158h-8.106v-1.158h8.106zM200.986 368.217v1.158h-8.106v-1.158h8.106zm0-3.406v1.158h-8.106v-1.158h8.106zM190.775 368.217v1.158h-8.106v-1.158h8.106zm0-3.406v1.158h-8.106v-1.158h8.106zM180.564 368.217v1.158h-8.106v-1.158h8.106zm0-3.406v1.158h-8.106v-1.158h8.106zM170.353 368.217v1.158h-8.105v-1.158h8.105zm0-3.406v1.158h-8.105v-1.158h8.105zM160.143 368.217v1.158h-8.106v-1.158h8.106zm0-3.406v1.158h-8.106v-1.158h8.106zM149.932 368.217v1.158h-8.106v-1.158h8.106zm0-3.406v1.158h-8.106v-1.158h8.106zM139.721 368.217v1.158h-8.106v-1.158h8.106zm0-3.406v1.158h-8.106v-1.158h8.106zM129.51 368.217v1.158h-8.106v-1.158h8.106zm0-3.406v1.158h-8.106v-1.158h8.106zM119.299 368.217v1.158h-8.106v-1.158h8.106zm0-3.406v1.158h-8.106v-1.158h8.106zM109.088 368.217v1.158h-8.106v-1.158h8.106zm0-3.406v1.158h-8.106v-1.158h8.106zM98.877 368.217v1.158h-8.106v-1.158h8.106zm0-3.406v1.158h-8.106v-1.158h8.106zM88.666 368.217v1.158H80.56v-1.158h8.106zm0-3.406v1.158H80.56v-1.158h8.106zM78.455 368.217v1.158H70.35v-1.158h8.106zm0-3.406v1.158H70.35v-1.158h8.106zM68.245 368.217v1.158h-8.107v-1.158h8.107zm0-3.406v1.158h-8.107v-1.158h8.107zM58.034 368.217v1.158h-8.106v-1.158h8.106zm0-3.406v1.158h-8.106v-1.158h8.106zM47.823 368.217v1.158h-8.106v-1.158h8.106zm0-3.406v1.158h-8.106v-1.158h8.106zM37.612 368.217v1.158h-8.106v-1.158h8.106zm0-3.406v1.158h-8.106v-1.158h8.106zM375.423 41.255v1.158h-8.106v-1.158h8.106zm0-3.406v1.158h-8.106V37.85h8.106zM365.212 41.255v1.158h-8.106v-1.158h8.106zm0-3.406v1.158h-8.106V37.85h8.106zM355.001 41.255v1.158h-8.106v-1.158h8.106zm0-3.406v1.158h-8.106V37.85h8.106zM344.79 41.255v1.158h-8.106v-1.158h8.106zm0-3.406v1.158h-8.106V37.85h8.106zM334.579 41.255v1.158h-8.106v-1.158h8.106zm0-3.406v1.158h-8.106V37.85h8.106zM324.368 41.255v1.158h-8.105v-1.158h8.105zm0-3.406v1.158h-8.105V37.85h8.105zM314.158 41.255v1.158h-8.106v-1.158h8.106zm0-3.406v1.158h-8.106V37.85h8.106zM303.947 41.255v1.158h-8.106v-1.158h8.106zm0-3.406v1.158h-8.106V37.85h8.106zM293.736 41.255v1.158h-8.106v-1.158h8.106zm0-3.406v1.158h-8.106V37.85h8.106zM283.525 41.255v1.158h-8.106v-1.158h8.106zm0-3.406v1.158h-8.106V37.85h8.106zM273.314 41.255v1.158h-8.106v-1.158h8.106zm0-3.406v1.158h-8.106V37.85h8.106zM263.103 41.255v1.158h-8.106v-1.158h8.106zm0-3.406v1.158h-8.106V37.85h8.106zM252.892 41.255v1.158h-8.106v-1.158h8.106zm0-3.406v1.158h-8.106V37.85h8.106zM242.681 41.255v1.158h-8.106v-1.158h8.106zm0-3.406v1.158h-8.106V37.85h8.106zM232.47 41.255v1.158h-8.106v-1.158h8.106zm0-3.406v1.158h-8.106V37.85h8.106zM222.259 41.255v1.158h-8.105v-1.158h8.105zm0-3.406v1.158h-8.105V37.85h8.105zM212.049 41.255v1.158h-8.106v-1.158h8.106zm0-3.406v1.158h-8.106V37.85h8.106zM201.838 41.255v1.158h-8.106v-1.158h8.106zm0-3.406v1.158h-8.106V37.85h8.106zM191.627 41.255v1.158h-8.106v-1.158h8.106zm0-3.406v1.158h-8.106V37.85h8.106zM181.416 41.255v1.158h-8.106v-1.158h8.106zm0-3.406v1.158h-8.106V37.85h8.106zM171.205 41.255v1.158h-8.106v-1.158h8.106zm0-3.406v1.158h-8.106V37.85h8.106zM160.994 41.255v1.158h-8.106v-1.158h8.106zm0-3.406v1.158h-8.106V37.85h8.106zM150.783 41.255v1.158h-8.106v-1.158h8.106zm0-3.406v1.158h-8.106V37.85h8.106zM140.572 41.255v1.158h-8.106v-1.158h8.106zm0-3.406v1.158h-8.106V37.85h8.106zM130.361 41.255v1.158h-8.106v-1.158h8.106zm0-3.406v1.158h-8.106V37.85h8.106zM120.15 41.255v1.158h-8.106v-1.158h8.106zm0-3.406v1.158h-8.106V37.85h8.106zM109.94 41.255v1.158h-8.106v-1.158h8.106zm0-3.406v1.158h-8.106V37.85h8.106zM99.729 41.255v1.158h-8.106v-1.158h8.106zm0-3.406v1.158h-8.106V37.85h8.106zM89.518 41.255v1.158h-8.106v-1.158h8.106zm0-3.406v1.158h-8.106V37.85h8.106zM79.307 41.255v1.158H71.2v-1.158h8.106zm0-3.406v1.158H71.2V37.85h8.106zM69.096 41.255v1.158H60.99v-1.158h8.106zm0-3.406v1.158H60.99V37.85h8.106zM58.885 41.255v1.158h-8.106v-1.158h8.106zm0-3.406v1.158h-8.106V37.85h8.106zM48.674 41.255v1.158h-8.106v-1.158h8.106zm0-3.406v1.158h-8.106V37.85h8.106zM38.463 41.255v1.158h-8.106v-1.158h8.106zm0-3.406v1.158h-8.106V37.85h8.106zM399.704 1.902h1.362l4.241 7.323h-1.414L400.47 3.18h-.136l-3.423 6.045h-1.447l4.24-7.323zM401.526 11.722h1.158v8.106h-1.158v-8.106zm-3.406 0h1.158v8.106h-1.158v-8.106zM401.526 21.933h1.158v8.105h-1.158v-8.105zm-3.406 0h1.158v8.105h-1.158v-8.105zM401.526 32.143h1.158v8.106h-1.158v-8.106zm-3.406 0h1.158v8.106h-1.158v-8.106zM401.526 42.354h1.158v8.106h-1.158v-8.106zm-3.406 0h1.158v8.106h-1.158v-8.106zM401.526 52.565h1.158v8.106h-1.158v-8.106zm-3.406 0h1.158v8.106h-1.158v-8.106zM401.526 62.776h1.158v8.106h-1.158v-8.106zm-3.406 0h1.158v8.106h-1.158v-8.106zM401.526 72.987h1.158v8.106h-1.158v-8.106zm-3.406 0h1.158v8.106h-1.158v-8.106zM401.526 83.198h1.158v8.106h-1.158v-8.106zm-3.406 0h1.158v8.106h-1.158v-8.106zM401.526 93.409h1.158v8.106h-1.158v-8.106zm-3.406 0h1.158v8.106h-1.158v-8.106zM401.526 103.62h1.158v8.106h-1.158v-8.106zm-3.406 0h1.158v8.106h-1.158v-8.106zM401.526 113.831h1.158v8.106h-1.158v-8.106zm-3.406 0h1.158v8.106h-1.158v-8.106zM401.526 124.041h1.158v8.106h-1.158v-8.106zm-3.406 0h1.158v8.106h-1.158v-8.106zM401.526 134.252h1.158v8.106h-1.158v-8.106zm-3.406 0h1.158v8.106h-1.158v-8.106zM401.526 144.463h1.158v8.106h-1.158v-8.106zm-3.406 0h1.158v8.106h-1.158v-8.106zM401.526 154.674h1.158v8.106h-1.158v-8.106zm-3.406 0h1.158v8.106h-1.158v-8.106zM401.526 164.885h1.158v8.106h-1.158v-8.106zm-3.406 0h1.158v8.106h-1.158v-8.106zM401.526 175.096h1.158v8.106h-1.158v-8.106zm-3.406 0h1.158v8.106h-1.158v-8.106zM401.526 185.307h1.158v8.106h-1.158v-8.106zm-3.406 0h1.158v8.106h-1.158v-8.106zM401.526 195.518h1.158v8.106h-1.158v-8.106zm-3.406 0h1.158v8.106h-1.158v-8.106zM401.526 205.729h1.158v8.106h-1.158v-8.106zm-3.406 0h1.158v8.106h-1.158v-8.106zM401.526 215.94h1.158v8.106h-1.158v-8.106zm-3.406 0h1.158v8.106h-1.158v-8.106zM401.526 226.15h1.158v8.106h-1.158v-8.106zm-3.406 0h1.158v8.106h-1.158v-8.106zM401.526 236.361h1.158v8.106h-1.158v-8.106zm-3.406 0h1.158v8.106h-1.158v-8.106zM401.526 246.572h1.158v8.106h-1.158v-8.106zm-3.406 0h1.158v8.106h-1.158v-8.106zM401.526 256.783h1.158v8.106h-1.158v-8.106zm-3.406 0h1.158v8.106h-1.158v-8.106zM401.526 266.994h1.158v8.106h-1.158v-8.106zm-3.406 0h1.158v8.106h-1.158v-8.106zM401.526 277.205h1.158v8.106h-1.158v-8.106zm-3.406 0h1.158v8.106h-1.158v-8.106zM401.526 287.416h1.158v8.106h-1.158v-8.106zm-3.406 0h1.158v8.106h-1.158v-8.106zM401.526 297.627h1.158v8.106h-1.158v-8.106zm-3.406 0h1.158v8.106h-1.158v-8.106zM401.526 307.838h1.158v8.106h-1.158v-8.106zm-3.406 0h1.158v8.106h-1.158v-8.106zM401.526 318.049h1.158v8.106h-1.158v-8.106zm-3.406 0h1.158v8.106h-1.158v-8.106zM401.526 328.259h1.158v8.106h-1.158v-8.106zm-3.406 0h1.158v8.106h-1.158v-8.106zM401.526 338.47h1.158v8.106h-1.158v-8.106zm-3.406 0h1.158v8.106h-1.158v-8.106zM401.526 348.681h1.158v8.106h-1.158v-8.106zm-3.406 0h1.158v8.106h-1.158v-8.106zM401.526 358.892h1.158v8.106h-1.158v-8.106zm-3.406 0h1.158v8.106h-1.158v-8.106zM401.526 369.103h1.158v8.106h-1.158v-8.106zm-3.406 0h1.158v8.106h-1.158v-8.106zM382.675 1.902h1.362l4.24 7.323h-1.413l-3.423-6.045h-.136l-3.423 6.045h-1.448l4.241-7.323zM384.497 11.722h1.158v8.106h-1.158v-8.106zm-3.406 0h1.158v8.106h-1.158v-8.106zM384.497 21.933h1.158v8.105h-1.158v-8.105zm-3.406 0h1.158v8.105h-1.158v-8.105zM384.497 32.143h1.158v8.106h-1.158v-8.106zm-3.406 0h1.158v8.106h-1.158v-8.106zM384.497 42.354h1.158v8.106h-1.158v-8.106zm-3.406 0h1.158v8.106h-1.158v-8.106zM384.497 52.565h1.158v8.106h-1.158v-8.106zm-3.406 0h1.158v8.106h-1.158v-8.106zM384.497 62.776h1.158v8.106h-1.158v-8.106zm-3.406 0h1.158v8.106h-1.158v-8.106zM384.497 72.987h1.158v8.106h-1.158v-8.106zm-3.406 0h1.158v8.106h-1.158v-8.106zM384.497 83.198h1.158v8.106h-1.158v-8.106zm-3.406 0h1.158v8.106h-1.158v-8.106zM384.497 93.409h1.158v8.106h-1.158v-8.106zm-3.406 0h1.158v8.106h-1.158v-8.106zM384.497 103.62h1.158v8.106h-1.158v-8.106zm-3.406 0h1.158v8.106h-1.158v-8.106zM384.497 113.831h1.158v8.106h-1.158v-8.106zm-3.406 0h1.158v8.106h-1.158v-8.106zM384.497 124.041h1.158v8.106h-1.158v-8.106zm-3.406 0h1.158v8.106h-1.158v-8.106zM384.497 134.252h1.158v8.106h-1.158v-8.106zm-3.406 0h1.158v8.106h-1.158v-8.106zM384.497 144.463h1.158v8.106h-1.158v-8.106zm-3.406 0h1.158v8.106h-1.158v-8.106zM384.497 154.674h1.158v8.106h-1.158v-8.106zm-3.406 0h1.158v8.106h-1.158v-8.106zM384.497 164.885h1.158v8.106h-1.158v-8.106zm-3.406 0h1.158v8.106h-1.158v-8.106zM384.497 175.096h1.158v8.106h-1.158v-8.106zm-3.406 0h1.158v8.106h-1.158v-8.106zM384.497 185.307h1.158v8.106h-1.158v-8.106zm-3.406 0h1.158v8.106h-1.158v-8.106zM384.497 195.518h1.158v8.106h-1.158v-8.106zm-3.406 0h1.158v8.106h-1.158v-8.106zM384.497 205.729h1.158v8.106h-1.158v-8.106zm-3.406 0h1.158v8.106h-1.158v-8.106zM384.497 215.94h1.158v8.106h-1.158v-8.106zm-3.406 0h1.158v8.106h-1.158v-8.106zM384.497 226.15h1.158v8.106h-1.158v-8.106zm-3.406 0h1.158v8.106h-1.158v-8.106zM384.497 236.361h1.158v8.106h-1.158v-8.106zm-3.406 0h1.158v8.106h-1.158v-8.106zM384.497 246.572h1.158v8.106h-1.158v-8.106zm-3.406 0h1.158v8.106h-1.158v-8.106zM384.497 256.783h1.158v8.106h-1.158v-8.106zm-3.406 0h1.158v8.106h-1.158v-8.106zM384.497 266.994h1.158v8.106h-1.158v-8.106zm-3.406 0h1.158v8.106h-1.158v-8.106zM384.497 277.205h1.158v8.106h-1.158v-8.106zm-3.406 0h1.158v8.106h-1.158v-8.106zM384.497 287.416h1.158v8.106h-1.158v-8.106zm-3.406 0h1.158v8.106h-1.158v-8.106zM384.497 297.627h1.158v8.106h-1.158v-8.106zm-3.406 0h1.158v8.106h-1.158v-8.106zM384.497 307.838h1.158v8.106h-1.158v-8.106zm-3.406 0h1.158v8.106h-1.158v-8.106zM384.497 318.049h1.158v8.106h-1.158v-8.106zm-3.406 0h1.158v8.106h-1.158v-8.106zM384.497 328.259h1.158v8.106h-1.158v-8.106zm-3.406 0h1.158v8.106h-1.158v-8.106zM384.497 338.47h1.158v8.106h-1.158v-8.106zm-3.406 0h1.158v8.106h-1.158v-8.106zM384.497 348.681h1.158v8.106h-1.158v-8.106zm-3.406 0h1.158v8.106h-1.158v-8.106zM384.497 358.892h1.158v8.106h-1.158v-8.106zm-3.406 0h1.158v8.106h-1.158v-8.106zM384.497 369.103h1.158v8.106h-1.158v-8.106zm-3.406 0h1.158v8.106h-1.158v-8.106zM367.468 51.714h1.158v8.106h-1.158v-8.106zm-3.406 0h1.158v8.106h-1.158v-8.106zM367.468 61.925h1.158v8.106h-1.158v-8.106zm-3.406 0h1.158v8.106h-1.158v-8.106zM367.468 72.136h1.158v8.106h-1.158v-8.106zm-3.406 0h1.158v8.106h-1.158v-8.106zM367.468 82.347h1.158v8.105h-1.158v-8.105zm-3.406 0h1.158v8.105h-1.158v-8.105zM367.468 92.557h1.158v8.106h-1.158v-8.106zm-3.406 0h1.158v8.106h-1.158v-8.106zM367.468 102.768h1.158v8.106h-1.158v-8.106zm-3.406 0h1.158v8.106h-1.158v-8.106zM367.468 112.979h1.158v8.106h-1.158v-8.106zm-3.406 0h1.158v8.106h-1.158v-8.106zM367.468 123.19h1.158v8.106h-1.158v-8.106zm-3.406 0h1.158v8.106h-1.158v-8.106zM367.468 133.401h1.158v8.106h-1.158v-8.106zm-3.406 0h1.158v8.106h-1.158v-8.106zM367.468 143.612h1.158v8.106h-1.158v-8.106zm-3.406 0h1.158v8.106h-1.158v-8.106zM367.468 153.823h1.158v8.106h-1.158v-8.106zm-3.406 0h1.158v8.106h-1.158v-8.106zM367.468 164.034h1.158v8.106h-1.158v-8.106zm-3.406 0h1.158v8.106h-1.158v-8.106zM367.468 174.245h1.158v8.106h-1.158v-8.106zm-3.406 0h1.158v8.106h-1.158v-8.106zM367.468 184.455h1.158v8.106h-1.158v-8.106zm-3.406 0h1.158v8.106h-1.158v-8.106zM367.468 194.666h1.158v8.106h-1.158v-8.106zm-3.406 0h1.158v8.106h-1.158v-8.106zM367.468 204.877h1.158v8.106h-1.158v-8.106zm-3.406 0h1.158v8.106h-1.158v-8.106zM367.468 215.088h1.158v8.106h-1.158v-8.106zm-3.406 0h1.158v8.106h-1.158v-8.106zM367.468 225.299h1.158v8.106h-1.158v-8.106zm-3.406 0h1.158v8.106h-1.158v-8.106zM367.468 235.51h1.158v8.106h-1.158v-8.106zm-3.406 0h1.158v8.106h-1.158v-8.106zM367.468 245.721h1.158v8.106h-1.158v-8.106zm-3.406 0h1.158v8.106h-1.158v-8.106zM367.468 255.932h1.158v8.106h-1.158v-8.106zm-3.406 0h1.158v8.106h-1.158v-8.106zM367.468 266.143h1.158v8.106h-1.158v-8.106zm-3.406 0h1.158v8.106h-1.158v-8.106zM367.468 276.354h1.158v8.106h-1.158v-8.106zm-3.406 0h1.158v8.106h-1.158v-8.106zM367.468 286.564h1.158v8.106h-1.158v-8.106zm-3.406 0h1.158v8.106h-1.158v-8.106zM367.468 296.775h1.158v8.106h-1.158v-8.106zm-3.406 0h1.158v8.106h-1.158v-8.106zM367.468 306.986h1.158v8.106h-1.158v-8.106zm-3.406 0h1.158v8.106h-1.158v-8.106zM367.468 317.197h1.158v8.106h-1.158v-8.106zm-3.406 0h1.158v8.106h-1.158v-8.106zM367.468 327.408h1.158v8.106h-1.158v-8.106zm-3.406 0h1.158v8.106h-1.158v-8.106zM367.468 337.619h1.158v8.106h-1.158v-8.106zm-3.406 0h1.158v8.106h-1.158v-8.106zM367.468 347.83h1.158v8.106h-1.158v-8.106zm-3.406 0h1.158v8.106h-1.158v-8.106zM39.654 51.714h1.158v8.106h-1.158v-8.106zm-3.405 0h1.157v8.106H36.25v-8.106zM39.654 61.925h1.158v8.106h-1.158v-8.106zm-3.405 0h1.157v8.106H36.25v-8.106zM39.654 72.136h1.158v8.106h-1.158v-8.106zm-3.405 0h1.157v8.106H36.25v-8.106zM39.654 82.347h1.158v8.105h-1.158v-8.105zm-3.405 0h1.157v8.105H36.25v-8.105zM39.654 92.557h1.158v8.106h-1.158v-8.106zm-3.405 0h1.157v8.106H36.25v-8.106zM39.654 102.768h1.158v8.106h-1.158v-8.106zm-3.405 0h1.157v8.106H36.25v-8.106zM39.654 112.979h1.158v8.106h-1.158v-8.106zm-3.405 0h1.157v8.106H36.25v-8.106zM39.654 123.19h1.158v8.106h-1.158v-8.106zm-3.405 0h1.157v8.106H36.25v-8.106zM39.654 133.401h1.158v8.106h-1.158v-8.106zm-3.405 0h1.157v8.106H36.25v-8.106zM39.654 143.612h1.158v8.106h-1.158v-8.106zm-3.405 0h1.157v8.106H36.25v-8.106zM39.654 153.823h1.158v8.106h-1.158v-8.106zm-3.405 0h1.157v8.106H36.25v-8.106zM39.654 164.034h1.158v8.106h-1.158v-8.106zm-3.405 0h1.157v8.106H36.25v-8.106zM39.654 174.245h1.158v8.106h-1.158v-8.106zm-3.405 0h1.157v8.106H36.25v-8.106zM39.654 184.455h1.158v8.106h-1.158v-8.106zm-3.405 0h1.157v8.106H36.25v-8.106zM39.654 194.666h1.158v8.106h-1.158v-8.106zm-3.405 0h1.157v8.106H36.25v-8.106zM39.654 204.877h1.158v8.106h-1.158v-8.106zm-3.405 0h1.157v8.106H36.25v-8.106zM39.654 215.088h1.158v8.106h-1.158v-8.106zm-3.405 0h1.157v8.106H36.25v-8.106zM39.654 225.299h1.158v8.106h-1.158v-8.106zm-3.405 0h1.157v8.106H36.25v-8.106zM39.654 235.51h1.158v8.106h-1.158v-8.106zm-3.405 0h1.157v8.106H36.25v-8.106zM39.654 245.721h1.158v8.106h-1.158v-8.106zm-3.405 0h1.157v8.106H36.25v-8.106zM39.654 255.932h1.158v8.106h-1.158v-8.106zm-3.405 0h1.157v8.106H36.25v-8.106zM39.654 266.143h1.158v8.106h-1.158v-8.106zm-3.405 0h1.157v8.106H36.25v-8.106zM39.654 276.354h1.158v8.106h-1.158v-8.106zm-3.405 0h1.157v8.106H36.25v-8.106zM39.654 286.564h1.158v8.106h-1.158v-8.106zm-3.405 0h1.157v8.106H36.25v-8.106zM39.654 296.775h1.158v8.106h-1.158v-8.106zm-3.405 0h1.157v8.106H36.25v-8.106zM39.654 306.986h1.158v8.106h-1.158v-8.106zm-3.405 0h1.157v8.106H36.25v-8.106zM39.654 317.197h1.158v8.106h-1.158v-8.106zm-3.405 0h1.157v8.106H36.25v-8.106zM39.654 327.408h1.158v8.106h-1.158v-8.106zm-3.405 0h1.157v8.106H36.25v-8.106zM39.654 337.619h1.158v8.106h-1.158v-8.106zm-3.405 0h1.157v8.106H36.25v-8.106zM39.654 347.83h1.158v8.106h-1.158v-8.106zm-3.405 0h1.157v8.106H36.25v-8.106zM5.816 405.316H4.454l-4.24-7.322h1.413l3.423 6.045h.136l3.423-6.045h1.447l-4.24 7.322zM3.994 395.497H2.836v-8.106h1.158v8.106zm3.406 0H6.242v-8.106H7.4v8.106zM3.994 385.286H2.836v-8.106h1.158v8.106zm3.406 0H6.242v-8.106H7.4v8.106zM3.994 375.075H2.836v-8.106h1.158v8.106zm3.406 0H6.242v-8.106H7.4v8.106zM3.994 364.864H2.836v-8.105h1.158v8.105zm3.406 0H6.242v-8.105H7.4v8.105zM3.994 354.654H2.836v-8.106h1.158v8.106zm3.406 0H6.242v-8.106H7.4v8.106zM3.994 344.443H2.836v-8.106h1.158v8.106zm3.406 0H6.242v-8.106H7.4v8.106zM3.994 334.232H2.836v-8.106h1.158v8.106zm3.406 0H6.242v-8.106H7.4v8.106zM3.994 324.021H2.836v-8.106h1.158v8.106zm3.406 0H6.242v-8.106H7.4v8.106zM3.994 313.81H2.836v-8.106h1.158v8.106zm3.406 0H6.242v-8.106H7.4v8.106zM3.994 303.599H2.836v-8.106h1.158v8.106zm3.406 0H6.242v-8.106H7.4v8.106zM3.994 293.388H2.836v-8.106h1.158v8.106zm3.406 0H6.242v-8.106H7.4v8.106zM3.994 283.177H2.836v-8.106h1.158v8.106zm3.406 0H6.242v-8.106H7.4v8.106zM3.994 272.966H2.836v-8.106h1.158v8.106zm3.406 0H6.242v-8.106H7.4v8.106zM3.994 262.755H2.836v-8.105h1.158v8.105zm3.406 0H6.242v-8.105H7.4v8.105zM3.994 252.545H2.836v-8.106h1.158v8.106zm3.406 0H6.242v-8.106H7.4v8.106zM3.994 242.334H2.836v-8.106h1.158v8.106zm3.406 0H6.242v-8.106H7.4v8.106zM3.994 232.123H2.836v-8.106h1.158v8.106zm3.406 0H6.242v-8.106H7.4v8.106zM3.994 221.912H2.836v-8.106h1.158v8.106zm3.406 0H6.242v-8.106H7.4v8.106zM3.994 211.701H2.836v-8.106h1.158v8.106zm3.406 0H6.242v-8.106H7.4v8.106zM3.994 201.49H2.836v-8.106h1.158v8.106zm3.406 0H6.242v-8.106H7.4v8.106zM3.994 191.279H2.836v-8.106h1.158v8.106zm3.406 0H6.242v-8.106H7.4v8.106zM3.994 181.068H2.836v-8.106h1.158v8.106zm3.406 0H6.242v-8.106H7.4v8.106zM3.994 170.857H2.836v-8.106h1.158v8.106zm3.406 0H6.242v-8.106H7.4v8.106zM3.994 160.646H2.836v-8.105h1.158v8.105zm3.406 0H6.242v-8.105H7.4v8.105zM3.994 150.436H2.836v-8.106h1.158v8.106zm3.406 0H6.242v-8.106H7.4v8.106zM3.994 140.225H2.836v-8.106h1.158v8.106zm3.406 0H6.242v-8.106H7.4v8.106zM3.994 130.014H2.836v-8.106h1.158v8.106zm3.406 0H6.242v-8.106H7.4v8.106zM3.994 119.803H2.836v-8.106h1.158v8.106zm3.406 0H6.242v-8.106H7.4v8.106zM3.994 109.592H2.836v-8.106h1.158v8.106zm3.406 0H6.242v-8.106H7.4v8.106zM3.994 99.381H2.836v-8.106h1.158v8.106zm3.406 0H6.242v-8.106H7.4v8.106zM3.994 89.17H2.836v-8.106h1.158v8.106zm3.406 0H6.242v-8.106H7.4v8.106zM3.994 78.96H2.836v-8.107h1.158v8.106zm3.406 0H6.242v-8.107H7.4v8.106zM3.994 68.748H2.836v-8.106h1.158v8.106zm3.406 0H6.242v-8.106H7.4v8.106zM3.994 58.537H2.836v-8.105h1.158v8.105zm3.406 0H6.242v-8.105H7.4v8.105zM3.994 48.327H2.836V40.22h1.158v8.106zm3.406 0H6.242V40.22H7.4v8.106zM3.994 38.116H2.836V30.01h1.158v8.106zm3.406 0H6.242V30.01H7.4v8.106zM22.845 405.316h-1.362l-4.24-7.322h1.413l3.423 6.045h.136l3.423-6.045h1.447l-4.24 7.322zM21.023 395.497h-1.158v-8.106h1.158v8.106zm3.406 0h-1.158v-8.106h1.158v8.106zM21.023 385.286h-1.158v-8.106h1.158v8.106zm3.406 0h-1.158v-8.106h1.158v8.106zM21.023 375.075h-1.158v-8.106h1.158v8.106zm3.406 0h-1.158v-8.106h1.158v8.106zM21.023 364.864h-1.158v-8.105h1.158v8.105zm3.406 0h-1.158v-8.105h1.158v8.105zM21.023 354.654h-1.158v-8.106h1.158v8.106zm3.406 0h-1.158v-8.106h1.158v8.106zM21.023 344.443h-1.158v-8.106h1.158v8.106zm3.406 0h-1.158v-8.106h1.158v8.106zM21.023 334.232h-1.158v-8.106h1.158v8.106zm3.406 0h-1.158v-8.106h1.158v8.106zM21.023 324.021h-1.158v-8.106h1.158v8.106zm3.406 0h-1.158v-8.106h1.158v8.106zM21.023 313.81h-1.158v-8.106h1.158v8.106zm3.406 0h-1.158v-8.106h1.158v8.106zM21.023 303.599h-1.158v-8.106h1.158v8.106zm3.406 0h-1.158v-8.106h1.158v8.106zM21.023 293.388h-1.158v-8.106h1.158v8.106zm3.406 0h-1.158v-8.106h1.158v8.106zM21.023 283.177h-1.158v-8.106h1.158v8.106zm3.406 0h-1.158v-8.106h1.158v8.106zM21.023 272.966h-1.158v-8.106h1.158v8.106zm3.406 0h-1.158v-8.106h1.158v8.106zM21.023 262.755h-1.158v-8.105h1.158v8.105zm3.406 0h-1.158v-8.105h1.158v8.105zM21.023 252.545h-1.158v-8.106h1.158v8.106zm3.406 0h-1.158v-8.106h1.158v8.106zM21.023 242.334h-1.158v-8.106h1.158v8.106zm3.406 0h-1.158v-8.106h1.158v8.106zM21.023 232.123h-1.158v-8.106h1.158v8.106zm3.406 0h-1.158v-8.106h1.158v8.106zM21.023 221.912h-1.158v-8.106h1.158v8.106zm3.406 0h-1.158v-8.106h1.158v8.106zM21.023 211.701h-1.158v-8.106h1.158v8.106zm3.406 0h-1.158v-8.106h1.158v8.106zM21.023 201.49h-1.158v-8.106h1.158v8.106zm3.406 0h-1.158v-8.106h1.158v8.106zM21.023 191.279h-1.158v-8.106h1.158v8.106zm3.406 0h-1.158v-8.106h1.158v8.106zM21.023 181.068h-1.158v-8.106h1.158v8.106zm3.406 0h-1.158v-8.106h1.158v8.106zM21.023 170.857h-1.158v-8.106h1.158v8.106zm3.406 0h-1.158v-8.106h1.158v8.106zM21.023 160.646h-1.158v-8.105h1.158v8.105zm3.406 0h-1.158v-8.105h1.158v8.105zM21.023 150.436h-1.158v-8.106h1.158v8.106zm3.406 0h-1.158v-8.106h1.158v8.106zM21.023 140.225h-1.158v-8.106h1.158v8.106zm3.406 0h-1.158v-8.106h1.158v8.106zM21.023 130.014h-1.158v-8.106h1.158v8.106zm3.406 0h-1.158v-8.106h1.158v8.106zM21.023 119.803h-1.158v-8.106h1.158v8.106zm3.406 0h-1.158v-8.106h1.158v8.106zM21.023 109.592h-1.158v-8.106h1.158v8.106zm3.406 0h-1.158v-8.106h1.158v8.106zM21.023 99.381h-1.158v-8.106h1.158v8.106zm3.406 0h-1.158v-8.106h1.158v8.106zM21.023 89.17h-1.158v-8.106h1.158v8.106zm3.406 0h-1.158v-8.106h1.158v8.106zM21.023 78.96h-1.158v-8.107h1.158v8.106zm3.406 0h-1.158v-8.107h1.158v8.106zM21.023 68.748h-1.158v-8.106h1.158v8.106zm3.406 0h-1.158v-8.106h1.158v8.106zM21.023 58.537h-1.158v-8.105h1.158v8.105zm3.406 0h-1.158v-8.105h1.158v8.105zM21.023 48.327h-1.158V40.22h1.158v8.106zm3.406 0h-1.158V40.22h1.158v8.106zM21.023 38.116h-1.158V30.01h1.158v8.106zm3.406 0h-1.158V30.01h1.158v8.106z"/></g><defs><clipPath id="a"><path fill="#fff" transform="translate(.213 .964)" d="M0 0h405.093v405.091H0z"/></clipPath></defs></svg>