<svg width="33" height="33" fill="none" xmlns="http://www.w3.org/2000/svg"><g clip-path="url(#a)"><path fill="#050E1F" stroke="#AAFFE4" stroke-width="1.5" d="M1.106 1.674h30.5v30.5h-30.5z"/><path d="M13.606 19.33a1.031 1.031 0 1 0 0-2.062 1.031 1.031 0 0 0 0 2.062zM19.106 19.33a1.031 1.031 0 1 0 0-2.062 1.031 1.031 0 0 0 0 2.062z" fill="#EDFCFF"/><path d="M11.75 12.798a15.069 15.069 0 0 1 4.606-.687c1.562-.011 3.116.22 4.606.687M20.962 21.049c-1.49.466-3.044.698-4.606.687a15.067 15.067 0 0 1-4.606-.687" stroke="#AAFFE4" stroke-width="1.5" stroke-linecap="round" stroke-linejoin="round"/><path d="m18.68 21.572 1.034 2.067a.685.685 0 0 0 .773.362c2.108-.516 3.926-1.415 5.25-2.565a.693.693 0 0 0 .213-.721l-2.92-9.732a.687.687 0 0 0-.398-.44 15.112 15.112 0 0 0-2.549-.789.689.689 0 0 0-.8.455l-.686 2.055M14.033 21.572l-1.034 2.067a.685.685 0 0 1-.773.362c-2.108-.516-3.926-1.415-5.25-2.565a.692.692 0 0 1-.213-.721l2.92-9.732a.688.688 0 0 1 .398-.44 15.112 15.112 0 0 1 2.549-.789.689.689 0 0 1 .8.455l.686 2.055" stroke="#AAFFE4" stroke-width="1.5" stroke-linecap="round" stroke-linejoin="round"/><path d="M13.606 19.33a1.031 1.031 0 1 0 0-2.062 1.031 1.031 0 0 0 0 2.062zM19.106 19.33a1.031 1.031 0 1 0 0-2.062 1.031 1.031 0 0 0 0 2.062z" fill="#AAFFE4"/><path d="M11.75 12.798a15.069 15.069 0 0 1 4.606-.687c1.562-.011 3.116.22 4.606.687M20.962 21.049c-1.49.466-3.044.698-4.606.687a15.067 15.067 0 0 1-4.606-.687" stroke="#AAFFE4" stroke-width="1.5" stroke-linecap="round" stroke-linejoin="round"/><path d="m18.68 21.572 1.034 2.067a.685.685 0 0 0 .773.362c2.108-.516 3.926-1.415 5.25-2.565a.693.693 0 0 0 .213-.721l-2.92-9.732a.687.687 0 0 0-.398-.44 15.112 15.112 0 0 0-2.549-.789.689.689 0 0 0-.8.455l-.686 2.055M14.033 21.572l-1.034 2.067a.685.685 0 0 1-.773.362c-2.108-.516-3.926-1.415-5.25-2.565a.692.692 0 0 1-.213-.721l2.92-9.732a.688.688 0 0 1 .398-.44 15.112 15.112 0 0 1 2.549-.789.689.689 0 0 1 .8.455l.686 2.055" stroke="#AAFFE4" stroke-width="1.5" stroke-linecap="round" stroke-linejoin="round"/></g><defs><clipPath id="a"><path fill="#fff" transform="translate(.356 .924)" d="M0 0h32v32H0z"/></clipPath></defs></svg>