<svg width="48" height="49" viewBox="0 0 48 49" fill="none" xmlns="http://www.w3.org/2000/svg">
<g clip-path="url(#clip0)">
<path d="M23.0288 13.5056L23.0288 35.5667C23.0288 36.1021 23.4629 36.5361 23.9983 36.5361C24.5337 36.5361 24.9677 36.1021 24.9677 35.5667L24.9677 13.5056C24.9677 12.9701 24.5337 12.5361 23.9983 12.5361C23.4629 12.5361 23.0288 12.9701 23.0288 13.5056Z" fill="#58FFCA" stroke="#58FFCA"/>
<path d="M24.0002 34.1946L16.4128 26.6073C16.0342 26.2287 15.4203 26.2287 15.0417 26.6073C14.6632 26.9859 14.6632 27.5997 15.0417 27.9783L23.3146 36.2512C23.6932 36.6298 24.307 36.6298 24.6857 36.2512L32.9585 27.9783C33.1479 27.789 33.2425 27.5409 33.2425 27.2928C33.2425 27.0447 33.1479 26.7965 32.9585 26.6072C32.5799 26.2286 31.9661 26.2286 31.5875 26.6072L24.0002 34.1946Z" fill="#58FFCA" stroke="#58FFCA"/>
</g>
<defs>
<clipPath id="clip0">
<rect width="48" height="48" fill="white" transform="translate(0 0.536133)"/>
</clipPath>
</defs>
</svg>
