<svg width="300" height="300" fill="none" xmlns="http://www.w3.org/2000/svg"><path d="M61.439 93.256c48.91-47.888 128.212-47.888 177.123 0l5.886 5.764a6.04 6.04 0 0 1 0 8.67l-20.136 19.716a3.177 3.177 0 0 1-4.428 0l-8.101-7.931c-34.122-33.408-89.444-33.408-123.566 0l-8.675 8.494a3.178 3.178 0 0 1-4.428 0l-20.136-19.716a6.046 6.046 0 0 1-1.834-4.335 6.04 6.04 0 0 1 1.834-4.335l6.46-6.327h.001zm218.767 40.774 17.922 17.547a6.04 6.04 0 0 1 0 8.67l-80.81 79.122c-2.446 2.394-6.41 2.394-8.856 0l-57.354-56.155a1.59 1.59 0 0 0-2.214 0L91.54 239.37c-2.446 2.394-6.411 2.394-8.857 0L1.872 160.247a6.038 6.038 0 0 1-1.357-6.689 6.038 6.038 0 0 1 1.357-1.982l17.922-17.547c2.445-2.394 6.41-2.394 8.856 0l57.355 56.155a1.59 1.59 0 0 0 2.214 0l57.351-56.154c2.446-2.394 6.41-2.395 8.856 0l57.355 56.155a1.59 1.59 0 0 0 2.214 0l57.355-56.155c2.446-2.394 6.41-2.394 8.856 0z" fill="#3B99FC"/></svg>