<svg width="33" height="33" fill="none" xmlns="http://www.w3.org/2000/svg"><path d="M14.047 19.328a1.031 1.031 0 1 0 0-2.062 1.031 1.031 0 0 0 0 2.062zM19.547 19.328a1.031 1.031 0 1 0 0-2.062 1.031 1.031 0 0 0 0 2.062z" fill="#EDFCFF"/><path d="M12.19 12.796a15.069 15.069 0 0 1 4.607-.688c1.561-.01 3.115.221 4.606.688M21.403 21.047c-1.49.466-3.044.698-4.606.687a15.069 15.069 0 0 1-4.606-.687" stroke="#EDFCFF" stroke-width="1.5" stroke-linecap="round" stroke-linejoin="round"/><path d="m19.121 21.57 1.034 2.067a.685.685 0 0 0 .772.362c2.109-.516 3.927-1.415 5.251-2.565a.692.692 0 0 0 .212-.721l-2.92-9.733a.691.691 0 0 0-.397-.439 15.103 15.103 0 0 0-2.55-.789.689.689 0 0 0-.8.455l-.685 2.055M14.473 21.57l-1.034 2.067a.684.684 0 0 1-.772.362c-2.109-.516-3.927-1.415-5.25-2.565a.692.692 0 0 1-.213-.721l2.92-9.733a.688.688 0 0 1 .397-.439 15.112 15.112 0 0 1 2.55-.789.689.689 0 0 1 .8.455l.685 2.055" stroke="#EDFCFF" stroke-width="1.5" stroke-linecap="round" stroke-linejoin="round"/><path d="M14.047 19.328a1.031 1.031 0 1 0 0-2.062 1.031 1.031 0 0 0 0 2.062zM19.547 19.328a1.031 1.031 0 1 0 0-2.062 1.031 1.031 0 0 0 0 2.062z" fill="#EDFCFF"/><path d="M12.19 12.796a15.069 15.069 0 0 1 4.607-.688c1.561-.01 3.115.221 4.606.688M21.403 21.047c-1.49.466-3.044.698-4.606.687a15.069 15.069 0 0 1-4.606-.687" stroke="#EDFCFF" stroke-width="1.5" stroke-linecap="round" stroke-linejoin="round"/><path d="m19.121 21.57 1.034 2.067a.685.685 0 0 0 .772.362c2.109-.516 3.927-1.415 5.251-2.565a.692.692 0 0 0 .212-.721l-2.92-9.733a.691.691 0 0 0-.397-.439 15.103 15.103 0 0 0-2.55-.789.689.689 0 0 0-.8.455l-.685 2.055M14.473 21.57l-1.034 2.067a.684.684 0 0 1-.772.362c-2.109-.516-3.927-1.415-5.25-2.565a.692.692 0 0 1-.213-.721l2.92-9.733a.688.688 0 0 1 .397-.439 15.112 15.112 0 0 1 2.55-.789.689.689 0 0 1 .8.455l.685 2.055" stroke="#EDFCFF" stroke-width="1.5" stroke-linecap="round" stroke-linejoin="round"/></svg>