<svg width="25" height="25" fill="none" xmlns="http://www.w3.org/2000/svg"><g clip-path="url(#a)"><path d="M24.984 12.69c0 6.627-5.372 12-12 12-6.627 0-12-5.373-12-12 0-6.628 5.373-12 12-12 6.628 0 12 5.372 12 12z" fill="#6584E0"/><path d="m12.984 4.82-.101.344v9.99l.101.102 4.638-2.742-4.638-7.694z" fill="#FCFAFA"/><path d="m12.981 4.82-4.637 7.695 4.637 2.741V4.82zM12.987 16.765l-.057.07v3.558l.057.167 4.64-6.535-4.64 2.74z" fill="#FCFAFA"/><path d="M12.981 20.56v-3.795l-4.637-2.74 4.637 6.535z" fill="#FCFAFA"/><path d="m12.984 15.257 4.638-2.742-4.638-2.107v4.849z" fill="#6584E0" fill-opacity=".8"/><path d="m8.344 12.515 4.637 2.742v-4.85l-4.637 2.108z" fill="#6584E0" fill-opacity=".6"/></g><defs><clipPath id="a"><path fill="#fff" transform="translate(.984 .69)" d="M0 0h24v24H0z"/></clipPath></defs></svg>